<?xml version="1.0" encoding="UTF-8"?>
<svg width="67px" height="66px" viewBox="0 0 67 66" version="1.1" xmlns="http://www.w3.org/2000/svg" xmlns:xlink="http://www.w3.org/1999/xlink">
    <!-- Generator: Sketch 52.2 (67145) - http://www.bohemiancoding.com/sketch -->
    <title>noun_Opinion_1333613@2x</title>
    <desc>Created with Sketch.</desc>
    <g id="Page-1" stroke="none" stroke-width="1" fill="none" fill-rule="evenodd">
        <g id="Custom-Preset" transform="translate(-542.000000, -108.000000)" fill="#010101">
            <g id="noun_Opinion_1333613" transform="translate(542.000000, 108.000000)">
                <g id="Group">
                    <path d="M65,54 L63.1,54 L63.1,15.3 C63.1,12.5 60.8,10.2 58,10.2 L52.9,10.2 C52.3,10.2 51.9,10.6 51.9,11.2 C51.9,11.8 52.3,12.2 52.9,12.2 L58,12.2 C59.7,12.2 61.1,13.6 61.1,15.3 L61.1,45.8 L4.9,45.8 L4.9,15.3 C4.9,13.6 6.3,12.2 8,12.2 L20.2,12.2 C20.8,12.2 21.2,11.8 21.2,11.2 C21.2,10.6 20.8,10.2 20.2,10.2 L8,10.2 C5.2,10.2 2.9,12.5 2.9,15.3 L2.9,54 L1,54 C0.4,54 0,54.4 0,55 L0,56.7 C0,61.8 4.2,66 9.3,66 L56.8,66 C61.9,66 66.1,61.8 66.1,56.7 L66.1,55 C66,54.5 65.6,54 65,54 Z M4.9,47.7 L61.1,47.7 L61.1,54 L4.9,54 L4.9,47.7 Z M64,56.7 C64,60.7 60.7,64 56.7,64 L9.3,64 C5.3,64 2,60.7 2,56.7 L2,56 C2.1,56 62.8,56 64,56 L64,56.7 Z" id="Shape" fill-rule="nonzero"></path>
                    <path d="M38.6,49.7 L27.4,49.7 C26.8,49.7 26.4,50.1 26.4,50.7 C26.4,51.3 26.8,51.7 27.4,51.7 L38.7,51.7 C39.3,51.7 39.7,51.3 39.7,50.7 C39.6,50.2 39.2,49.7 38.6,49.7 Z" id="Path"></path>
                    <path d="M22.5,26.4 C22.5,22.7 19.5,19.7 15.8,19.7 C12.1,19.7 9.1,22.7 9.1,26.4 C9.1,30.1 12.1,33.1 15.8,33.1 C19.5,33.1 22.5,30.1 22.5,26.4 Z M11.1,26.4 C11.1,23.8 13.2,21.7 15.8,21.7 C18.4,21.7 20.5,23.8 20.5,26.4 C20.5,29 18.4,31.1 15.8,31.1 C13.2,31.1 11.1,28.9 11.1,26.4 Z" id="Shape" fill-rule="nonzero"></path>
                    <path d="M6.1,38.9 L6.1,43.4 C6.1,44 6.5,44.4 7.1,44.4 L25.1,44.4 C25.7,44.4 26.1,44 26.1,43.4 L26.1,38.9 C26.1,35.7 23.5,33.1 20.3,33.1 L11.9,33.1 C8.7,33.1 6.1,35.7 6.1,38.9 Z M8.1,38.9 C8.1,36.8 9.8,35.1 11.9,35.1 L20.3,35.1 C22.4,35.1 24.1,36.8 24.1,38.9 L24.1,42.4 L8.1,42.4 L8.1,38.9 Z" id="Shape" fill-rule="nonzero"></path>
                    <path d="M56.1,30.7 C56.1,27.8 53.7,25.4 50.8,25.4 C47.9,25.4 45.5,27.8 45.5,30.7 C45.5,32.5 46.4,34 47.7,35 C46.4,35.2 45.1,35.8 44.1,36.8 C43.1,35.9 42,35.3 40.6,35.1 C41.9,34.1 42.8,32.6 42.8,30.8 C42.8,27.9 40.4,25.5 37.5,25.5 C34.6,25.5 32.2,27.9 32.2,30.8 C32.2,32.6 33.1,34.1 34.4,35.1 C31.1,35.7 28.5,38.6 28.5,42 L28.5,43.5 C28.5,44.1 28.9,44.5 29.5,44.5 C42.4,44.5 38.9,44.5 58.5,44.5 C59.1,44.5 59.5,44.1 59.5,43.5 L59.5,41.9 C59.5,38.5 57,35.6 53.7,35 C55.3,34 56.1,32.4 56.1,30.7 Z M37.6,27.4 C39.4,27.4 40.9,28.9 40.9,30.7 C40.9,32.5 39.4,34 37.6,34 C35.8,34 34.3,32.5 34.3,30.7 C34.3,28.8 35.8,27.4 37.6,27.4 Z M30.6,41.9 C30.6,39.1 32.9,36.9 35.6,36.9 L39.3,36.9 C42.1,36.9 44.3,39.2 44.3,41.9 L44.3,42.4 L30.6,42.4 L30.6,41.9 Z M57.7,41.9 L57.7,42.5 L46.4,42.5 L46.4,41.9 C46.4,40.6 46,39.3 45.4,38.3 C46.3,37.4 47.6,36.9 48.9,36.9 L52.6,36.9 C55.4,36.8 57.7,39.1 57.7,41.9 Z M50.8,34 C49,34 47.5,32.5 47.5,30.7 C47.5,28.9 49,27.4 50.8,27.4 C52.6,27.4 54.1,28.9 54.1,30.7 C54.1,32.5 52.7,34 50.8,34 Z" id="Shape" fill-rule="nonzero"></path>
                    <path d="M27.2,20.8 C26.9,22.3 26,23.9 24.7,25.1 C24.3,25.5 24.1,26 24.3,26.4 C24.5,27 25.2,27.3 26.1,27.3 C27.1,27.3 31.3,25.8 33.8,23.5 C34.8,23.7 35.7,23.7 36.6,23.7 C44.4,23.7 50.8,18.4 50.8,11.8 C50.8,5.2 44.5,0 36.6,0 C28.8,0 22.4,5.3 22.4,11.9 C22.4,15.3 24.2,18.5 27.2,20.8 Z M36.6,2 C43.3,2 48.8,6.4 48.8,11.9 C48.8,17.3 43.3,21.8 36.6,21.8 C35.6,21.8 34.6,21.7 33.6,21.5 C33.3,21.4 32.9,21.5 32.7,21.8 C31.5,23 29.7,24.1 27.5,24.9 C28.4,23.6 29,22.2 29.2,20.8 C29.3,20.3 29,19.7 28.6,19.4 C25.9,17.5 24.4,14.8 24.4,12 C24.4,6.4 29.9,2 36.6,2 Z" id="Shape" fill-rule="nonzero"></path>
                    <path d="M29.2,14.9 C31,14.9 32.4,13.5 32.4,11.7 C32.4,9.9 31,8.5 29.2,8.5 C27.4,8.5 26,9.9 26,11.7 C26,13.5 27.4,14.9 29.2,14.9 Z M29.2,10.5 C29.9,10.5 30.4,11 30.4,11.7 C30.4,12.4 29.9,12.9 29.2,12.9 C28.5,12.9 28,12.4 28,11.7 C28,11 28.5,10.5 29.2,10.5 Z" id="Shape" fill-rule="nonzero"></path>
                    <path d="M36.8,14.9 C38.6,14.9 40,13.5 40,11.7 C40,9.9 38.6,8.5 36.8,8.5 C35,8.5 33.6,9.9 33.6,11.7 C33.6,13.5 35,14.9 36.8,14.9 Z M36.8,10.5 C37.5,10.5 38,11 38,11.7 C38,12.4 37.5,12.9 36.8,12.9 C36.1,12.9 35.6,12.4 35.6,11.7 C35.6,11 36.1,10.5 36.8,10.5 Z" id="Shape" fill-rule="nonzero"></path>
                    <path d="M44.3,14.9 C46.1,14.9 47.5,13.5 47.5,11.7 C47.5,9.9 46.1,8.5 44.3,8.5 C42.5,8.5 41.1,9.9 41.1,11.7 C41.1,13.5 42.6,14.9 44.3,14.9 Z M44.3,10.5 C45,10.5 45.5,11 45.5,11.7 C45.5,12.4 45,12.9 44.3,12.9 C43.6,12.9 43.1,12.4 43.1,11.7 C43.1,11 43.7,10.5 44.3,10.5 Z" id="Shape" fill-rule="nonzero"></path>
                </g>
            </g>
        </g>
    </g>
</svg>