<?xml version="1.0" encoding="UTF-8"?>
<svg width="54px" height="60px" viewBox="0 0 54 60" version="1.1" xmlns="http://www.w3.org/2000/svg" xmlns:xlink="http://www.w3.org/1999/xlink">
    <!-- Generator: Sketch 52.2 (67145) - http://www.bohemiancoding.com/sketch -->
    <title>noun_strategy_1946220@1x</title>
    <desc>Created with Sketch.</desc>
    <g id="Page-1" stroke="none" stroke-width="1" fill="none" fill-rule="evenodd">
        <g id="Custom-Preset" transform="translate(-117.000000, -132.000000)" fill="#000000">
            <g id="noun_strategy_1946220" transform="translate(117.000000, 132.000000)">
                <g id="Group">
                    <path d="M47,0 L1,0 C0.44771525,0 0,0.44771525 0,1 L0,59 C0,59.5522847 0.44771525,60 1,60 L40,60 C40.2650858,59.9993974 40.5191981,59.8940863 40.707,59.707 L47.707,52.707 C47.7905961,52.6220334 47.8583283,52.5228057 47.907,52.414 C47.921,52.383 47.929,52.353 47.94,52.321 C47.9687972,52.2370257 47.9862842,52.1495906 47.992,52.061 C47.992,52.04 48.004,52.021 48.004,52 L48.004,29 L46,29 L46,51 L40,51 C39.4477153,51 39,51.4477153 39,52 L39,58 L2,58 L2,2 L46,2 L46,15 L48,15 L48,1 C48,0.44771525 47.5522847,0 47,0 Z M41,53 L44.586,53 L41,56.586 L41,53 Z" id="Shape" fill-rule="nonzero"></path>
                    <path d="M52.207,16.793 C50.9723352,15.6127996 49.0276648,15.6127996 47.793,16.793 L30.293,34.293 C30.1054506,34.4804927 30.0000566,34.7348052 30,35 L30,38 C30,38.5522847 30.4477153,39 31,39 L34,39 C34.2651948,38.9999434 34.5195073,38.8945494 34.707,38.707 L52.207,21.207 C53.4237812,19.9872338 53.4237812,18.0127662 52.207,16.793 Z M47,20.414 L48.586,22 L47.5,23.086 L45.914,21.5 L47,20.414 Z M33.586,37 L32,37 L32,35.414 L44.5,22.914 L46.086,24.5 L33.586,37 Z M50.793,19.793 L50,20.586 L48.414,19 L49.207,18.207 C49.6507027,17.7831245 50.3492973,17.7831245 50.793,18.207 C51.2290234,18.6457629 51.2290234,19.3542371 50.793,19.793 Z" id="Shape" fill-rule="nonzero"></path>
                    <path d="M13,17 C13,14.790861 11.209139,13 9,13 C6.790861,13 5,14.790861 5,17 C5,19.209139 6.790861,21 9,21 C11.209139,21 13,19.209139 13,17 Z M9,19 C7.8954305,19 7,18.1045695 7,17 C7,15.8954305 7.8954305,15 9,15 C10.1045695,15 11,15.8954305 11,17 C11,18.1045695 10.1045695,19 9,19 Z" id="Shape" fill-rule="nonzero"></path>
                    <polygon id="Path" points="21.707 10.707 24 8.414 26.293 10.707 27.707 9.293 25.414 7 27.707 4.707 26.293 3.293 24 5.586 21.707 3.293 20.293 4.707 22.586 7 20.293 9.293"></polygon>
                    <path d="M37,20 C39.209139,20 41,18.209139 41,16 C41,13.790861 39.209139,12 37,12 C34.790861,12 33,13.790861 33,16 C33,18.209139 34.790861,20 37,20 Z M37,14 C38.1045695,14 39,14.8954305 39,16 C39,17.1045695 38.1045695,18 37,18 C35.8954305,18 35,17.1045695 35,16 C35,14.8954305 35.8954305,14 37,14 Z" id="Shape" fill-rule="nonzero"></path>
                    <path d="M12,49 C14.209139,49 16,47.209139 16,45 C16,42.790861 14.209139,41 12,41 C9.790861,41 8,42.790861 8,45 C8,47.209139 9.790861,49 12,49 Z M12,43 C13.1045695,43 14,43.8954305 14,45 C14,46.1045695 13.1045695,47 12,47 C10.8954305,47 10,46.1045695 10,45 C10,43.8954305 10.8954305,43 12,43 Z" id="Shape" fill-rule="nonzero"></path>
                    <polygon id="Path" points="14.414 30 16.707 27.707 15.293 26.293 13 28.586 10.707 26.293 9.293 27.707 11.586 30 9.293 32.293 10.707 33.707 13 31.414 15.293 33.707 16.707 32.293"></polygon>
                    <polygon id="Path" points="40.293 40.293 38 42.586 35.707 40.293 34.293 41.707 36.586 44 34.293 46.293 35.707 47.707 38 45.414 40.293 47.707 41.707 46.293 39.414 44 41.707 41.707"></polygon>
                    <path d="M18.246,20 L19.946,20 L19.946,18 L15.946,18 C15.3937153,18 14.946,18.4477153 14.946,19 L14.946,23 L16.946,23 L16.946,21.6 C21.283812,27.1928273 20.9715781,35.0948752 16.206,40.328 L17.687,41.674 C23.2295184,35.5904839 23.467555,26.3611352 18.246,20 Z" id="Path"></path>
                    <path d="M24,54 C26.209139,54 28,52.209139 28,50 C28,47.790861 26.209139,46 24,46 C21.790861,46 20,47.790861 20,50 C20,52.209139 21.790861,54 24,54 Z M24,48 C25.1045695,48 26,48.8954305 26,50 C26,51.1045695 25.1045695,52 24,52 C22.8954305,52 22,51.1045695 22,50 C22,48.8954305 22.8954305,48 24,48 Z" id="Shape" fill-rule="nonzero"></path>
                    <path d="M15,16 L27.586,16 L26.293,17.293 L27.707,18.707 L30.707,15.707 C31.0973819,15.3165001 31.0973819,14.6834999 30.707,14.293 L27.707,11.293 L26.293,12.707 L27.586,14 L15,14 L15,16 Z" id="Path"></path>
                    <path d="M32,25 L34,25 L34,21 C34,20.4477153 33.5522847,20 33,20 L29,20 L29,22 L30.62,22 C25.7081949,27.22919 22.98201,34.1387451 23,41.313 L22.9999115,44 L25,44 L25,41.313 C24.9834477,34.6860896 27.4856469,28.3004772 32,23.449 L32,25 Z" id="Path"></path>
                </g>
            </g>
        </g>
    </g>
</svg>