<?xml version="1.0" encoding="UTF-8"?>
<svg width="60px" height="60px" viewBox="0 0 60 60" version="1.1" xmlns="http://www.w3.org/2000/svg" xmlns:xlink="http://www.w3.org/1999/xlink">
    <!-- Generator: Sketch 52.2 (67145) - http://www.bohemiancoding.com/sketch -->
    <title>noun_partnership_1991889@2x</title>
    <desc>Created with Sketch.</desc>
    <g id="Page-1" stroke="none" stroke-width="1" fill="none" fill-rule="evenodd">
        <g id="Custom-Preset" transform="translate(-187.000000, -219.000000)" fill="#000000">
            <g id="noun_partnership_1991889" transform="translate(187.000000, 219.000000)">
                <path d="M30,25 C35.5228475,25 40,20.5228475 40,15 C40,9.4771525 35.5228475,5 30,5 C24.4771525,5 20,9.4771525 20,15 C20.0061394,20.5203025 24.4796975,24.9938606 30,25 Z M30,7 C34.418278,7 38,10.581722 38,15 C38,19.418278 34.418278,23 30,23 C25.581722,23 22,19.418278 22,15 C22.0050534,10.5838169 25.5838169,7.00505337 30,7 Z" id="Shape" fill-rule="nonzero"></path>
                <path d="M59,18 L43,18 C42.4477153,18 42,18.4477153 42,19 L42,27.42383 C40.1805612,28.2188133 39.0033849,30.0144662 39,32 C39.0006262,32.6891447 39.1458448,33.3704903 39.42627,34 L20.57373,34 C20.8541552,33.3704903 20.9993738,32.6891447 21,32 C20.9966151,30.0144662 19.8194388,28.2188133 18,27.42383 L18,19 C18,18.4477153 17.5522847,18 17,18 L1,18 C0.44771525,18 0,18.4477153 0,19 L0,57 C0,57.5522847 0.44771525,58 1,58 L7.1803,58 L7.01953,58.80371 C6.96071937,59.0974922 7.03673283,59.4021652 7.22665349,59.633891 C7.41657414,59.8656168 7.7003891,59.9999773 8,60 L13,60 C13.4509802,60.0000972 13.8462042,59.6982762 13.96484,59.26318 L15.50584,53.61182 L16.00389,59.09033 C16.0508181,59.6054766 16.4827204,59.9998994 17,60 L22,60 C22.2824974,59.9998237 22.5517585,59.8802464 22.7413144,59.6707867 C22.9308702,59.461327 23.0230578,59.1815026 22.99512,58.90039 L21.105,40 L38.895,40 L37.00488,58.90039 C36.9769422,59.1815026 37.0691298,59.461327 37.2586856,59.6707867 C37.4482415,59.8802464 37.7175026,59.9998237 38,60 L43,60 C43.517272,59.9998891 43.9491626,59.6054689 43.99609,59.09033 L44.49409,53.61182 L46.03509,59.26318 C46.1537326,59.6983013 46.5489938,60.0001288 47,60 L52,60 C52.2996109,59.9999773 52.5834259,59.8656168 52.7733465,59.633891 C52.9632672,59.4021652 53.0392806,59.0974922 52.98047,58.80371 L52.8197,58 L59,58 C59.5522847,58 60,57.5522847 60,57 L60,19 C60,18.4477153 59.5522847,18 59,18 Z M7.58026,56 L2,56 L2,20 L16,20 L16,27 C13.2399195,27.0032401 11.0032401,29.2399195 11,32 C11.0008652,32.7944259 11.1936692,33.5768809 11.562,34.28076 C9.84067079,34.8109584 8.42784138,36.051274 7.6792,37.68945 C7.65539376,37.7413539 7.63627436,37.7952818 7.62207,37.85059 L5.03271,47.74707 C4.96506255,48.0054273 5.00359469,48.2801106 5.13971626,48.5098835 C5.27583783,48.7396564 5.49823224,48.9054165 5.75732,48.97021 L8.83252,49.73877 L7.58026,56 Z M29,38 L20,38 C19.7175026,38.0001763 19.4482415,38.1197536 19.2586856,38.3292133 C19.0691298,38.538673 18.9769422,38.8184974 19.00488,39.09961 L20.895,58 L17.91309,58 L16.99609,47.90967 C16.9522904,47.4278026 16.5698328,47.0463864 16.0878477,47.0039008 C15.6058626,46.9614153 15.1625795,47.270045 15.03516,47.73682 L12.23633,58 L9.21973,58 L12.97607,40.2168 L11.02393,39.7832 L9.2467,47.78076 L7.22314,47.2749 L9.53414,38.44385 C10.2463326,36.9604908 11.7417052,36.0127747 13.38714,36.00195 C13.8029057,35.9995481 14.1738297,35.7401919 14.3188057,35.3505141 C14.4637818,34.9608362 14.3525738,34.5221074 14.03948,34.24854 C13.3803301,33.6874875 13.0003775,32.8655971 13,32 C13,30.3431458 14.3431458,29 16,29 C17.6568542,29 19,30.3431458 19,32 C18.9994648,32.8648765 18.6203117,33.6861654 17.9624,34.24756 C17.6488221,34.5218051 17.538146,34.9617406 17.684622,35.351723 C17.8310979,35.7417054 18.2040269,36.0000007 18.62061,36 L29,36 L29,38 Z M47.76367,58 L44.96484,47.73682 C44.8374205,47.270045 44.3941374,46.9614153 43.9121523,47.0039008 C43.4301672,47.0463864 43.0477096,47.4278026 43.00391,47.90967 L42.08691,58 L39.105,58 L40.99514,39.09961 C41.0230782,38.818494 40.930888,38.5386663 40.7413277,38.3292059 C40.5517674,38.1197455 40.2825008,38.0001707 40,38 L31,38 L31,36 L41.37939,36 C41.7959731,36.0000007 42.1689021,35.7417054 42.315378,35.351723 C42.461854,34.9617406 42.3511779,34.5218051 42.0376,34.24756 C41.3796883,33.6861654 41.0005352,32.8648765 41,32 C41,30.3431458 42.3431458,29 44,29 C45.6568542,29 47,30.3431458 47,32 C46.999605,32.8656084 46.6196259,33.6875007 45.96045,34.24854 C45.6473562,34.5221074 45.5361482,34.9608362 45.6811243,35.3505141 C45.8261003,35.7401919 46.1970243,35.9995481 46.61279,36.00195 C48.2582248,36.0127747 49.7535974,36.9604908 50.46579,38.44385 L52.77679,47.2749 L50.75323,47.78076 L48.97607,39.7832 L47.02393,40.2168 L50.78027,58 L47.76367,58 Z M58,56 L52.41974,56 L51.16748,49.73877 L54.24268,48.97021 C54.5017678,48.9054165 54.7241622,48.7396564 54.8602837,48.5098835 C54.9964053,48.2801106 55.0349375,48.0054273 54.96729,47.74707 L52.37793,37.85059 C52.3637256,37.7952818 52.3446062,37.7413539 52.3208,37.68945 C51.5721586,36.051274 50.1593292,34.8109584 48.438,34.28076 C48.8063308,33.5768809 48.9991348,32.7944259 49,32 C48.9967599,29.2399195 46.7600805,27.0032401 44,27 L44,20 L58,20 L58,56 Z" id="Shape" fill-rule="nonzero"></path>
                <polygon id="Path" points="14 39 15 39 15 42 17 42 17 39 18 39 18 37 14 37"></polygon>
                <polygon id="Path" points="42 39 43 39 43 42 45 42 45 39 46 39 46 37 42 37"></polygon>
                <rect id="Rectangle" x="4" y="23" width="2" height="2"></rect>
                <rect id="Rectangle" x="8" y="23" width="2" height="2"></rect>
                <rect id="Rectangle" x="12" y="23" width="2" height="2"></rect>
                <rect id="Rectangle" x="8" y="28" width="2" height="2"></rect>
                <rect id="Rectangle" x="4" y="28" width="2" height="2"></rect>
                <rect id="Rectangle" x="4" y="33" width="2" height="2"></rect>
                <rect id="Rectangle" x="4" y="38" width="2" height="2"></rect>
                <rect id="Rectangle" x="54" y="23" width="2" height="2"></rect>
                <rect id="Rectangle" x="50" y="23" width="2" height="2"></rect>
                <rect id="Rectangle" x="46" y="23" width="2" height="2"></rect>
                <rect id="Rectangle" x="50" y="28" width="2" height="2"></rect>
                <rect id="Rectangle" x="54" y="28" width="2" height="2"></rect>
                <rect id="Rectangle" x="54" y="33" width="2" height="2"></rect>
                <rect id="Rectangle" x="54" y="38" width="2" height="2"></rect>
                <rect id="Rectangle" x="29" y="27" width="2" height="3"></rect>
                <rect id="Rectangle" x="29" y="0" width="2" height="3"></rect>
                <rect id="Rectangle" transform="translate(20.454108, 5.454098) rotate(-45.000000) translate(-20.454108, -5.454098) " x="19.4542128" y="3.95425797" width="1.99979" height="2.99968"></rect>
                <rect id="Rectangle" transform="translate(39.545900, 24.545898) rotate(-45.000000) translate(-39.545900, -24.545898) " x="38.5460053" y="23.046058" width="1.99979" height="2.99968"></rect>
                <rect id="Rectangle" x="42" y="14" width="3" height="2"></rect>
                <rect id="Rectangle" x="15" y="14" width="3" height="2"></rect>
                <rect id="Rectangle" transform="translate(20.454109, 24.545906) rotate(-45.000000) translate(-20.454109, -24.545906) " x="18.954269" y="23.5460113" width="2.99968" height="1.99979"></rect>
                <rect id="Rectangle" transform="translate(39.545899, 5.454104) rotate(-45.000000) translate(-39.545899, -5.454104) " x="38.046059" y="4.45420879" width="2.99968" height="1.99979"></rect>
                <path d="M30,18 C29.4480122,17.9992838 29.0007162,17.5519878 29,17 L27,17 C27.0039027,18.2671418 27.8048218,19.3947037 29,19.81567 L29,21 L31,21 L31,19.81573 C32.1951857,19.3947388 32.9961017,18.2671571 33,17 C33,14.88623 31.30762,14.35889 30.29639,14.04346 C29.16943,13.69238 29,13.55566 29,13 C29,12.4477153 29.4477153,12 30,12 C30.5522847,12 31,12.4477153 31,13 L33,13 C32.9961017,11.7328429 32.1951857,10.6052612 31,10.18427 L31,9 L29,9 L29,10.18427 C27.8048143,10.6052612 27.0038983,11.7328429 27,13 C27,15.11084 28.69092,15.6377 29.70117,15.95264 C30.83008,16.30469 31,16.44189 31,17 C30.9992838,17.5519878 30.5519878,17.9992838 30,18 Z" id="Path"></path>
            </g>
        </g>
    </g>
</svg>