<svg xmlns="http://www.w3.org/2000/svg" width="85" height="85"><g fill-rule="evenodd"><circle cx="42.5" cy="42.5" r="42.5" fill="#069CA3" fill-rule="nonzero"/><g fill="#FCFCFC"><path d="M33.064 62.855c-2.32 0-4.368-1.474-5.14-3.685-.182-.6-.773-.967-1.365-.92h-.318c-3.003 0-5.46-2.487-5.46-5.526 0-.783-.6-1.38-1.365-1.38s-1.365.6-1.365 1.38c0 4.375 3.412 8.013 7.7 8.3 1.365 2.8 4.186 4.605 7.325 4.605 4.504 0 8.2-3.73 8.2-8.3v-32.7c0-3.04-2.457-5.526-5.46-5.526-2.32 0-4.277 1.427-5.095 3.5a5.43 5.43 0 0 0-1.729-.276c-3.276 0-5.914 2.67-5.914 5.987v.046c-2.866.645-5.05 3.224-5.05 6.3a6.46 6.46 0 0 0 .546 2.625c-1.73 1.566-2.775 3.823-2.775 6.217 0 .276 0 .506.045.737v.138c.045.23.045.506.1.737v.092c.045.23.1.46.182.7v.046c.1.23.182.46.273.737 0 0 0 .046.045.046.182.46.455.92.728 1.335 0 0 0 .046.045.046.273.414.6.783.955 1.15l.1.092c.182.138.318.322.5.46.045.046.1.092.136.092l.4.276c.1.046.136.092.227.184l.045.046c.045 0 .045.046.1.046 1.274.783 2.73 1.243 4.322 1.243 4.504 0 8.2-3.73 8.2-8.3V41.12c0-.783-.6-1.382-1.365-1.382s-1.365.6-1.365 1.382v2.302c0 3.04-2.457 5.526-5.46 5.526-1.092 0-2.093-.322-2.957-.875-.364-.23-.728-.506-1-.83-.045-.046-.1-.092-.1-.138a2.54 2.54 0 0 1-.273-.37c-.045-.046-.1-.092-.136-.184l-.273-.415c0-.046-.045-.046-.045-.092l-.273-.552c-.045-.046-.045-.138-.1-.185l-.136-.415c0-.092-.045-.138-.045-.23-.045-.138-.045-.276-.1-.415 0-.046 0-.138-.045-.184V43.5c0-1.796.864-3.408 2.275-4.467h1.82c.773 0 1.365-.6 1.365-1.38s-.6-1.382-1.365-1.382h-1.456a3.44 3.44 0 0 1-.41-1.658c0-1.796 1.274-3.27 2.957-3.638 1 1.934 2.957 3.27 5.277 3.27.773 0 1.365-.6 1.365-1.38s-.6-1.38-1.365-1.38c-1.4 0-2.64-.967-3.048-2.257-.045-.138-.1-.276-.1-.415v-.092c0-.138-.045-.276-.045-.46 0-1.796 1.4-3.224 3.185-3.224a3.19 3.19 0 0 1 1.911.645 1.31 1.31 0 0 0 1.41.138c.455-.23.773-.7.773-1.244v-.046c0-1.52 1.228-2.717 2.73-2.717s2.73 1.244 2.73 2.763v32.697c0 3.132-2.457 5.573-5.46 5.573zm27.48-13.815c-3.003 0-5.46-2.487-5.46-5.526 0-.783-.6-1.382-1.365-1.382s-1.365.6-1.365 1.382c0 4.56 3.685 8.3 8.2 8.3.773 0 1.365-.6 1.365-1.382s-.6-1.38-1.365-1.38z"/><path d="M69.46 43.513c0-2.395-1-4.65-2.775-6.217.318-.783.5-1.658.5-2.533 0-3.085-2.138-5.665-5.004-6.31v-.138a6 6 0 0 0-5.55-5.987h-.364a5.43 5.43 0 0 0-1.729.276c-.82-2.026-2.775-3.5-5.095-3.5-3.003 0-5.46 2.487-5.46 5.526V57.33c0 4.56 3.685 8.3 8.19 8.3 3.14 0 5.96-1.842 7.325-4.605 4.277-.276 7.69-3.87 7.69-8.3 0-1.013-.182-2.026-.546-2.947 1.774-1.566 2.82-3.822 2.82-6.263zm-5.277 4.65c-.59.415-.82 1.197-.455 1.842.455.83.728 1.75.728 2.717 0 3.04-2.457 5.526-5.46 5.526h-.318c-.59-.046-1.183.322-1.365.92-.773 2.2-2.82 3.685-5.14 3.685-3.003 0-5.46-2.487-5.46-5.526V24.63c0-1.52 1.228-2.763 2.73-2.763a2.71 2.71 0 0 1 2.684 2.349c-1 1.06-1.592 2.487-1.592 4.1 0 .783.59 1.38 1.365 1.38s1.365-.6 1.365-1.38c0-1.75 1.365-3.178 3.094-3.224 1.73.046 3.094 1.474 3.094 3.224 0 .322-.045.645-.136.967a1.35 1.35 0 0 0 .227 1.244c.273.368.682.553 1.137.553h.136c2.002 0 3.64 1.658 3.64 3.684 0 .553-.136 1.06-.318 1.52h-1.5c-.773 0-1.365.6-1.365 1.382s.59 1.38 1.365 1.38h1.82c1.4 1.06 2.275 2.67 2.275 4.467a5.5 5.5 0 0 1-2.548 4.651z" fill-rule="nonzero"/><ellipse cx="51.717" cy="34.671" rx="1.365" ry="1.382"/></g></g></svg>