<svg xmlns="http://www.w3.org/2000/svg" width="87" height="87"><g fill-rule="evenodd"><circle cx="43.5" cy="43.5" r="42.5" stroke="#089CA3" stroke-width="2" fill="#089CA3" fill-rule="nonzero"/><g fill="#FCFCFC"><path d="M49.318 48.462c-1.333 0-2.584-.557-3.526-1.565-.597-.64-1.38-1.025-2.208-1.088a.72.72 0 1 1 .11-1.443c1.188.1 2.3.638 3.156 1.542.665.714 1.542 1.107 2.47 1.107s1.8-.394 2.46-1.104c1.402-1.5 1.402-3.94.001-5.44-.66-.713-1.534-1.105-2.46-1.106s-1.807.393-2.472 1.105c-.847.906-1.968 1.454-3.157 1.544a.73.73 0 0 1-.776-.667c-.03-.398.268-.746.666-.776.826-.063 1.6-.45 2.2-1.1.94-1 2.192-1.564 3.524-1.564s2.585.558 3.52 1.566c1.9 2.043 1.9 5.37-.001 7.414-.934 1.007-2.183 1.563-3.513 1.565zm-28.916 0c-1.332 0-2.584-.557-3.526-1.565-.597-.64-1.382-1.025-2.208-1.088a.72.72 0 0 1-.666-.776c.03-.4.372-.7.776-.667 1.2.1 2.3.638 3.155 1.542.665.714 1.542 1.107 2.47 1.107s1.8-.394 2.46-1.104c1.403-1.5 1.403-3.94.002-5.44-.66-.713-1.535-1.105-2.46-1.106-.93 0-1.807.393-2.472 1.105-.847.906-1.968 1.454-3.156 1.544a.73.73 0 0 1-.776-.667c-.03-.397.268-.746.666-.776.827-.063 1.6-.45 2.2-1.1.94-1 2.192-1.564 3.524-1.564s2.585.558 3.52 1.566c1.9 2.043 1.9 5.37-.002 7.414-.934 1.007-2.182 1.563-3.513 1.565zm10.673-21.09c-.02 0-.038 0-.056-.002-.398-.03-.695-.378-.665-.777.092-1.2.64-2.312 1.542-3.157C32.6 22.77 33.003 21.9 33 20.96s-.393-1.8-1.103-2.46c-1.5-1.404-3.935-1.404-5.433-.002-.713.663-1.105 1.536-1.105 2.462s.4 1.8 1.105 2.475c.904.848 1.452 1.97 1.542 3.16a.72.72 0 0 1-.666.776c-.4.03-.745-.268-.776-.667-.063-.828-.45-1.614-1.088-2.213-1-.942-1.564-2.197-1.563-3.533s.557-2.583 1.565-3.52c2.04-1.9 5.362-1.9 7.405.002 1.006.935 1.562 2.186 1.564 3.518s-.554 2.592-1.564 3.535c-.637.598-1.024 1.384-1.087 2.212-.03.378-.346.667-.72.667zm0 33.082c-.02 0-.038 0-.056-.002-.398-.03-.695-.378-.665-.777.092-1.2.64-2.3 1.54-3.157.715-.667 1.107-1.547 1.106-2.476s-.393-1.8-1.103-2.46c-1.5-1.404-3.935-1.405-5.433-.001-.713.662-1.105 1.537-1.105 2.462s.4 1.8 1.105 2.475c.904.85 1.452 1.97 1.542 3.16.03.398-.267.746-.666.776s-.745-.27-.776-.667c-.063-.828-.45-1.613-1.088-2.213-1.008-.942-1.564-2.197-1.563-3.533s.557-2.582 1.565-3.52a5.5 5.5 0 0 1 7.405.001c1.006.936 1.562 2.187 1.564 3.518s-.554 2.6-1.564 3.534c-.637.598-1.024 1.384-1.087 2.212-.03.38-.346.668-.72.668z"/><path d="M66.875 48.462c-1.337-.001-2.585-.558-3.52-1.567-1.9-2.042-1.9-5.37.001-7.414.934-1.006 2.183-1.563 3.513-1.564 1.34 0 2.6.556 3.53 1.565.597.638 1.382 1.025 2.2 1.088.398.03.696.378.666.776a.72.72 0 0 1-.776.667c-1.188-.1-2.3-.64-3.155-1.543-.665-.713-1.542-1.106-2.47-1.106s-1.8.393-2.46 1.104c-1.402 1.5-1.402 3.94-.001 5.44.66.713 1.534 1.105 2.46 1.106s1.807-.392 2.472-1.106c.847-.905 1.968-1.454 3.157-1.543a.73.73 0 0 1 .775.667c.03.397-.268.745-.667.775-.827.063-1.6.45-2.2 1.1-.94 1-2.192 1.565-3.524 1.565zm-8.778-11.17c-1.34 0-2.683-.478-3.704-1.435-1.006-.935-1.56-2.185-1.563-3.518s.554-2.6 1.564-3.535c.637-.598 1.023-1.383 1.087-2.2.03-.4.368-.7.776-.667.398.03.696.378.666.776-.1 1.2-.638 2.3-1.54 3.158-.714.667-1.106 1.546-1.105 2.475s.393 1.8 1.103 2.46c1.5 1.405 3.935 1.405 5.433.002.713-.663 1.105-1.537 1.105-2.463s-.4-1.8-1.104-2.474c-.904-.848-1.452-1.97-1.543-3.16-.03-.4.267-.747.665-.777.406-.033.746.268.776.666.064.83.45 1.614 1.1 2.213 1 .942 1.564 2.197 1.563 3.533s-.557 2.583-1.565 3.52c-1.02.955-2.36 1.433-3.7 1.433zm0 33.083c-1.34 0-2.683-.48-3.704-1.435-1.006-.936-1.56-2.186-1.563-3.52s.554-2.6 1.564-3.534c.638-.598 1.024-1.384 1.087-2.2.03-.4.368-.7.776-.667.398.03.696.378.666.777a4.86 4.86 0 0 1-1.54 3.158c-.714.667-1.106 1.546-1.105 2.476s.393 1.8 1.103 2.46c1.5 1.403 3.935 1.403 5.433.001.713-.663 1.105-1.537 1.105-2.463s-.4-1.8-1.105-2.474c-.904-.848-1.45-1.97-1.543-3.16-.03-.398.267-.746.665-.777.406-.032.746.268.776.666.064.83.45 1.615 1.1 2.214 1 .942 1.564 2.197 1.563 3.533s-.557 2.583-1.565 3.52c-1.02.956-2.36 1.433-3.7 1.433zM27.3 60.455H14.723c-.4 0-.723-.323-.723-.724V45.084c0-.4.324-.724.723-.724s.723.324.723.724v13.923H27.3c.4 0 .723.323.723.724s-.324.724-.723.724z"/><path d="M43.64 41.615c-.4 0-.723-.324-.723-.724V27.37H31.073c-.4 0-.723-.324-.723-.724s.324-.724.723-.724H43.64c.4 0 .723.324.723.724V40.9c0 .4-.324.724-.723.724zm-28.917.405c-.4 0-.723-.324-.723-.724V26.65c0-.4.324-.724.723-.724H27.3c.4 0 .723.324.723.724s-.324.724-.723.724H15.446v13.924c0 .4-.324.724-.723.724zM43.64 60.455H31.073a.72.72 0 0 1-.723-.724c0-.4.324-.724.723-.724h11.843V45.5c0-.4.324-.724.723-.724s.723.323.723.724v14.24c0 .4-.324.724-.723.724zM72.554 42.02c-.4 0-.723-.324-.723-.724V27.373H59.988c-.4 0-.723-.324-.723-.724s.323-.724.723-.724h12.566c.4 0 .723.324.723.724v14.647c0 .4-.323.724-.723.724z"/><path d="M56.205 60.455H43.64a.72.72 0 0 1-.723-.724c0-.4.324-.724.723-.724h12.566c.4 0 .723.324.723.724s-.323.724-.723.724zm16.35 0H59.988a.72.72 0 1 1 0-1.448H71.83V45.084c0-.4.323-.724.723-.724s.723.324.723.724V59.73c0 .4-.323.724-.723.724zm-16.35-33.082H43.64c-.4 0-.723-.324-.723-.724s.324-.724.723-.724h12.566c.4 0 .723.324.723.724s-.323.724-.723.724z"/></g></g></svg>