<svg xmlns="http://www.w3.org/2000/svg" width="87" height="87"><g fill-rule="evenodd"><circle cx="43.5" cy="43.5" r="42.5" stroke="#089CA3" stroke-width="2" fill="#089CA3" fill-rule="nonzero"/><g fill="#FCFCFC"><path d="M46 45c0-5.738-3.742-10.612-8.9-12.33A6.99 6.99 0 0 0 40 27a7.01 7.01 0 0 0-7-7 7.01 7.01 0 0 0-7 7 6.99 6.99 0 0 0 2.91 5.67C23.742 34.388 20 39.262 20 45v1h26v-1zM28 27a5.01 5.01 0 0 1 5-5 5.01 5.01 0 0 1 5 5 5.01 5.01 0 0 1-5 5 5.01 5.01 0 0 1-5-5zm-5.955 17C22.552 38.4 27.27 34 33 34s10.448 4.4 10.955 10h-21.9zM59.1 54.67A6.99 6.99 0 0 0 62 49a7.01 7.01 0 0 0-7-7 7.01 7.01 0 0 0-7 7 6.99 6.99 0 0 0 2.91 5.67C45.742 56.388 42 61.262 42 67v1h26v-1c0-5.738-3.742-10.612-8.9-12.33zM50 49a5.01 5.01 0 0 1 5-5 5.01 5.01 0 0 1 5 5 5.01 5.01 0 0 1-5 5 5.01 5.01 0 0 1-5-5zm-5.955 17C44.552 60.4 49.27 56 55 56s10.448 4.4 10.955 10h-21.9z" fill-rule="nonzero"/><path d="M56.414 37.707v-12h-8.586l3.293-3.293L49.707 21 44 26.707l5.707 5.707L51.12 31l-3.293-3.293h6.586v10zm-25.12 19L34.586 60H28V50h-2v12h8.586l-3.293 3.293 1.414 1.414L38.414 61l-5.707-5.707z"/></g></g></svg>