<svg xmlns="http://www.w3.org/2000/svg" width="87" height="87"><g stroke-width="2" fill="none"><circle cx="43.5" cy="43.5" r="42.5" stroke="#089CA3" fill="#089CA3" fill-rule="nonzero"/><g stroke-width="2" stroke="#FCFCFC"><path d="M62 70V35.508C62 25.287 53.717 17 43.5 17S25 25.287 25 35.508v10.937h4.205V57.38H42.66v11.78h-6.727m5.044-11.78h5.045m-5.045-7.58c0 2.323-1.883 4.207-4.205 4.207s-4.205-1.884-4.205-4.207h8.4zm5.046-9.244h-5.045a1.68 1.68 0 1 1 0-3.365h5.045a1.68 1.68 0 1 1 0 3.365z"/><path d="M46.023 43.92h-5.045a1.68 1.68 0 1 1 0-3.365h5.045a1.68 1.68 0 1 1 0 3.365zm4.204-16.825a6.73 6.73 0 0 0-6.727-6.73 6.73 6.73 0 0 0-6.727 6.73c0 2.824 1.74 5.238 4.205 6.236v3.86h5.045v-3.86c2.465-1 4.205-3.412 4.205-6.236z"/><path d="M40.977 27.095h5.045"/><path d="M43.5 24.57v5.048m0 14.302v1.683a1.68 1.68 0 0 0 1.682 1.683h4.205a1.68 1.68 0 0 0 1.682-1.683v-5.047a1.68 1.68 0 1 1 3.364 0v6.73l2.523 2.524M28.364 34.667h1.682m1.68 0h1.682m1.682 0h1.682"/></g></g></svg>