<svg xmlns="http://www.w3.org/2000/svg" xmlns:xlink="http://www.w3.org/1999/xlink" width="87" height="87"><g fill-rule="evenodd"><circle cx="43.5" cy="43.5" r="42.5" stroke="#089CA3" stroke-width="2" fill="#089CA3" fill-rule="nonzero"/><g fill="#FCFCFC"><path d="M66.537 59.09h-1.4V30.36c0-2.08-1.682-3.786-3.73-3.786h-3.73c-.44 0-.73.297-.73.742s.293.743.73.743h3.73c1.243 0 2.267 1.04 2.267 2.3v22.644h-41.1V30.36c0-1.262 1.024-2.3 2.267-2.3h8.922c.44 0 .73-.297.73-.743s-.293-.742-.73-.742H24.85c-2.048 0-3.73 1.708-3.73 3.786V59.09h-1.4c-.44 0-.73.297-.73.743v1.262C19 64.882 22.072 68 25.8 68h34.74c3.73 0 6.8-3.118 6.8-6.905v-1.262c-.073-.372-.366-.743-.804-.743zm-43.954-4.677h41.1v4.677h-41.1v-4.677zm43.222 6.682c0 2.97-2.413 5.42-5.34 5.42H25.8c-2.925 0-5.34-2.45-5.34-5.42v-.52h45.343v.52z" fill-rule="nonzero"/><path d="M47.23 55.898h-8.19c-.44 0-.73.297-.73.743s.293.742.73.742h8.264c.44 0 .73-.297.73-.742-.073-.372-.366-.743-.804-.743z"/><g fill-rule="nonzero"><path d="M35.455 38.6c0-2.747-2.194-4.974-4.9-4.974s-4.9 2.227-4.9 4.974 2.194 4.974 4.9 4.974 4.9-2.227 4.9-4.974zm-8.337 0c0-1.93 1.536-3.49 3.437-3.49s3.437 1.56 3.437 3.49-1.536 3.49-3.437 3.49-3.437-1.633-3.437-3.49z"/><path d="M23.46 47.88v3.34c0 .445.293.743.73.743h13.164a.69.69 0 0 0 .73-.743v-3.34c0-2.376-1.9-4.306-4.242-4.306H27.7c-2.34 0-4.242 1.93-4.242 4.306zm1.463 0c0-1.56 1.243-2.82 2.78-2.82h6.143c1.536 0 2.78 1.262 2.78 2.82v2.6h-11.7v-2.6zm35.105-6.088c0-2.153-1.755-3.935-3.876-3.935s-3.876 1.782-3.876 3.935c0 1.336.658 2.45 1.6 3.192-.95.148-1.9.594-2.633 1.336-.73-.668-1.536-1.114-2.56-1.262.95-.742 1.6-1.856 1.6-3.192 0-2.153-1.755-3.935-3.876-3.935s-3.876 1.782-3.876 3.935c0 1.336.658 2.45 1.6 3.192-2.413.445-4.315 2.6-4.315 5.123v1.114c0 .445.293.743.73.743h21.2a.69.69 0 0 0 .73-.743v-1.188a5.23 5.23 0 0 0-4.242-5.123c1.17-.743 1.755-1.93 1.755-3.192zm-13.53-2.45c1.316 0 2.413 1.114 2.413 2.45s-1.097 2.45-2.413 2.45-2.413-1.113-2.413-2.45c0-1.4 1.097-2.45 2.413-2.45zm-5.12 10.765c0-2.08 1.682-3.712 3.657-3.712h2.706c2.048 0 3.657 1.708 3.657 3.712v.372H41.38v-.372zm19.82 0v.446h-8.264v-.446a5.41 5.41 0 0 0-.73-2.672c.658-.668 1.6-1.04 2.56-1.04h2.706c2.048-.074 3.73 1.633 3.73 3.712zm-5.046-5.865c-1.316 0-2.413-1.113-2.413-2.45s1.097-2.45 2.413-2.45 2.413 1.114 2.413 2.45-1.024 2.45-2.413 2.45zm-17.26-9.8c-.22 1.114-.878 2.302-1.828 3.192-.293.297-.44.668-.293.965.146.445.658.668 1.316.668.73 0 3.803-1.113 5.63-2.82.73.148 1.4.148 2.048.148 5.704 0 10.385-3.935 10.385-8.834S51.545 19 45.767 19c-5.704 0-10.385 3.935-10.385 8.835 0 2.524 1.316 4.9 3.5 6.607zm6.875-13.958c4.9 0 8.922 3.267 8.922 7.35 0 4-4.022 7.35-8.922 7.35a10.97 10.97 0 0 1-2.194-.223c-.22-.074-.512 0-.658.223-.878.9-2.194 1.708-3.803 2.3.658-.965 1.097-2.004 1.243-3.044.073-.37-.146-.816-.44-1.04-1.975-1.4-3.072-3.415-3.072-5.494 0-4.158 4.022-7.424 8.922-7.424z"/><use xlink:href="#B"/><use xlink:href="#B" x="5.558"/><path d="M51.4 30.062c1.316 0 2.34-1.04 2.34-2.375s-1.024-2.376-2.34-2.376-2.34 1.04-2.34 2.376 1.097 2.375 2.34 2.375zm0-3.267c.512 0 .878.37.878.89s-.366.89-.878.89-.878-.37-.878-.89.44-.89.878-.89z"/></g></g></g><defs ><path id="B" d="M40.355 30.062c1.316 0 2.34-1.04 2.34-2.375s-1.024-2.376-2.34-2.376-2.34 1.04-2.34 2.376 1.024 2.375 2.34 2.375zm0-3.267c.512 0 .878.37.878.89s-.366.89-.878.89-.878-.37-.878-.89.366-.89.878-.89z"/></defs></svg>