<svg xmlns="http://www.w3.org/2000/svg" width="87" height="87"><g stroke-width="2" fill="none"><circle cx="43.5" cy="43.5" r="42.5" stroke="#089CA3" fill="#089CA3" fill-rule="nonzero"/><g stroke-width="2" stroke="#fff"><path d="M62 70V35.508C62 25.287 53.717 17 43.5 17S25 25.287 25 35.508v10.937h4.205V57.38H42.66v11.78h-6.727m5.044-11.78h5.045m9.95-27.686c.083-.292.142-.596.142-.916 0-1.858-1.506-3.365-3.364-3.365a3.33 3.33 0 0 0-.854.123c.002-.042.013-.08.013-.123 0-1.858-1.506-3.365-3.364-3.365-.698 0-1.345.212-1.883.576-.46-1.312-1.694-2.26-3.163-2.26s-2.704.947-3.163 2.26a3.34 3.34 0 0 0-1.883-.576c-1.858 0-3.364 1.506-3.364 3.365-1.858 0-3.364 1.507-3.364 3.365a3.37 3.37 0 0 0 .142.916 3.37 3.37 0 0 0-2.665 3.3c0 1.858 1.506 3.365 3.364 3.365H55.27c1.858 0 3.364-1.507 3.364-3.365 0-1.618-1.143-2.968-2.665-3.3zm-11.632 2.87l2.523-2.524 2.523 2.524"/><path d="M46.864 30.04v7.992a1.68 1.68 0 0 0 1.682 1.683h6.727a1.68 1.68 0 1 1 0 3.365h-9.25a1.68 1.68 0 1 0 0 3.365h6.727l2.523 2.524M33.4 32.984h1.682m1.69 0h1.682m1.68 0h1.682"/></g></g></svg>