<svg xmlns="http://www.w3.org/2000/svg" width="87" height="87"><g fill-rule="nonzero"><circle cx="43.5" cy="43.5" r="42.5" stroke="#089CA3" stroke-width="2" fill="#089CA3"/><path d="M71.33 61.675l-10.98-6.367c.06-.36.12-.78.12-1.142V40.17a4.85 4.85 0 0 0-2.46-4.205l-12.06-7.028c-.36-.18-.72-.36-1.08-.42V16.382c0-.78-.6-1.382-1.38-1.382s-1.38.6-1.38 1.382v12.134l-1.08.42-12.06 7.028a4.85 4.85 0 0 0-2.46 4.205v13.997c0 .42.06.78.12 1.142l-10.92 6.367a1.38 1.38 0 0 0-.54 1.862c.36.66 1.2.9 1.92.48l10.98-6.367.9.72 12.12 6.968c.78.42 1.62.66 2.46.66s1.68-.24 2.46-.66l12.12-6.968c.36-.18.66-.42.9-.72l10.98 6.367c.18.12.42.18.66.18.48 0 .96-.24 1.2-.72.3-.6.06-1.442-.54-1.802zM41.907 31.29c.304-.173.73-.29 1.093-.29s.73.116 1.093.29L56 37.827 43 45l-13-7.173 11.907-6.538zM30.093 55.995C29.425 55.623 29 54.88 29 54.073V40l13 7.688V63l-11.907-7.005zm26.813 0L45 63V47.688L58 40v14.073c0 .806-.425 1.488-1.093 1.922z" fill="#FCFCFC"/></g></svg>