<svg xmlns="http://www.w3.org/2000/svg" width="87" height="87"><g fill-rule="nonzero"><circle cx="43.5" cy="43.5" r="42.5" fill="#089CA3" stroke="#089CA3" stroke-width="2"/><path d="M68.133 24.933H32.55A7.8 7.8 0 0 0 17 25.8v36.4a7.81 7.81 0 0 0 7.8 7.8h43.333c.48 0 .867-.388.867-.867V25.8c0-.48-.388-.867-.867-.867zm-49.4.867a6.07 6.07 0 0 1 6.067-6.066 6.07 6.07 0 0 1 6.067 6.066v31.502c-1.48-1.835-3.7-2.902-6.067-2.902s-4.588 1.067-6.067 2.902V25.8zm48.533 42.467H24.8a6.07 6.07 0 0 1-6.067-6.066 6.07 6.07 0 0 1 6.067-6.067 6.07 6.07 0 0 1 6.067 6.067c0 .48.388.867.867.867s.867-.388.867-.867V26.667h34.667v41.6zM36.933 64.8h26c.48 0 .867-.388.867-.867V44.867h-1.733V49.2H45.6v1.733h6.067v4.333H53.4v-4.333h8.667v12.134H53.4v-4.333h-1.733v4.333H37.8V50.933h4.333V49.2H37.8V37.067H56c.48 0 .867-.388.867-.867v-4.333h5.2V41.4H63.8V31c0-.48-.388-.867-.867-.867h-26c-.48 0-.867.388-.867.867v32.933c0 .48.388.867.867.867zM48.2 35.333h-1.733v-3.467H48.2v3.467zm1.733-3.467h1.733v3.467h-1.733v-3.467zm-5.2 3.467H43v-3.467h1.733v3.467zm10.4 0H53.4v-3.467h1.733v3.467zM37.8 31.867h3.467v3.467H37.8v-3.467z" fill="#FCFCFC"/></g></svg>