<svg xmlns="http://www.w3.org/2000/svg" width="85" height="85"><g fill-rule="evenodd"><circle cx="42.5" cy="42.5" r="42.5" fill="#069CA3" fill-rule="nonzero"/><g fill="#FCFCFC"><path d="M38.516 71.58h9.087c.502 0 .9-.43.9-.964V61.57l1.315-.698a.97.97 0 0 0 .503-.862v-5.785c0-1.945-1.363-3.557-3.13-3.82a4.98 4.98 0 0 0 .403-1.965c0-2.658-2.038-4.82-4.544-4.82s-4.544 2.163-4.544 4.82a4.98 4.98 0 0 0 .403 1.965c-1.767.263-3.13 1.875-3.13 3.82V60c0 .365.194.7.503.863l1.315.697v9.046c0 .533.407.964.9.964zm-.9-17.355c0-1.063.815-1.928 1.817-1.928h1.253a.91.91 0 0 0 .85-.625c.132-.375.033-.8-.253-1.064a2.93 2.93 0 0 1-.942-2.167c0-1.594 1.223-2.892 2.726-2.892s2.726 1.298 2.726 2.892c0 .833-.335 1.603-.943 2.167-.285.264-.385.7-.253 1.064s.473.626.85.626H46.7c1.002 0 1.817.865 1.817 1.928v5.2l-1.315.698a.97.97 0 0 0-.503.862v8.677h-7.27v-8.677c0-.365-.194-.7-.503-.863l-1.315-.697v-5.2zm-18.4 17.355h9.66c.533 0 .966-.433.966-.968V49.32h3.864c.375 0 .716-.218.875-.558a.97.97 0 0 0-.133-1.03l-9.66-11.613a1 1 0 0 0-1.484 0l-9.66 11.613a.97.97 0 0 0 .742 1.588h3.864v21.3c0 .535.433.968.966.968zM16.45 47.385l7.597-9.134 7.597 9.134h-2.767c-.533 0-.966.433-.966.968v21.3h-7.727v-21.3c0-.535-.433-.968-.966-.968H16.45z" fill-rule="nonzero"/><path d="M53.593 38.362c.16-.33.107-.722-.133-1.003L43.8 26.045a1.02 1.02 0 0 0-1.484 0l-9.66 11.313c-.24.282-.292.673-.133 1.003a.97.97 0 0 0 .875.543h3.864v4.714h1.932v-5.657c0-.52-.433-.943-.966-.943h-2.767l7.597-8.897 7.597 8.897h-2.767c-.533 0-.966.42-.966.943v5.657h1.932v-4.714h3.864a.97.97 0 0 0 .875-.543z"/><path d="M56.124 71.58h9.66a.97.97 0 0 0 .966-.97v-43.632h3.864c.375 0 .716-.218.875-.558a.97.97 0 0 0-.133-1.032l-9.66-11.635a1 1 0 0 0-1.484 0l-9.66 11.635c-.24.3-.292.692-.133 1.032s.5.558.875.558h3.864V70.61a.97.97 0 0 0 .966.97zm-2.767-46.54l7.597-9.15 7.597 9.15h-2.767a.97.97 0 0 0-.966.97V69.64H57.1V26.008a.97.97 0 0 0-.966-.97h-2.767z" fill-rule="nonzero"/><path d="M16.357 21.25h1.957v-2.936h2.936v-1.957h-2.936V13.42h-1.957v2.936H13.42v1.957h2.936zm11.603 2.656h2.936v2.936h1.957v-2.936h2.936V21.95h-2.936v-2.936h-1.957v2.936H27.96z"/></g></g></svg>