<svg xmlns="http://www.w3.org/2000/svg" width="87" height="87"><g fill-rule="evenodd"><circle cx="43.5" cy="43.5" r="42.5" fill="#089CA3" fill-rule="nonzero" stroke="#089CA3" stroke-width="2"/><g fill="#FCFCFC"><path d="M30.705 58.17h-.48v-1.874c0-2.37-2.062-4.297-4.596-4.297h-.254c-2.534 0-4.596 1.927-4.596 4.297v1.874h-.48c-.715 0-1.296.542-1.296 1.21v6.407c0 .67.58 1.21 1.296 1.21h10.408C31.42 67 32 66.458 32 65.79V59.38c.001-.67-.58-1.21-1.295-1.21zm-7.336-1.874c0-1.033.9-1.874 2.004-1.874h.254c1.105 0 2.004.84 2.004 1.874v1.874H23.37v-1.874zm6.04 8.28h-7.817v-3.984h7.816l.001 3.984z" fill-rule="nonzero"/><path d="M54.706 28H25.294C24.58 28 24 28.672 24 29.5s.58 1.5 1.294 1.5h29.412C55.42 31 56 30.328 56 29.5s-.58-1.5-1.294-1.5z"/><path d="M67.194 42.83v-1.284c0-3.25-2.092-6.016-5.012-7.076v-5.31c0-3.95-3.25-7.163-7.247-7.163H25.247c-3.937 0-7.12 3.045-7.243 6.932-.001.015-.004.027-.004.04v21.024c0 .693.57 1.256 1.27 1.256s1.27-.562 1.27-1.256v-15.42a7.64 7.64 0 0 0 5.091 1.939h33.93c.278 0 .55.028.816.07.163.075.342.12.534.12 2.16.6 3.74 2.535 3.74 4.842v1.22h-9.37c-1.908 0-3.46 1.534-3.46 3.42v5.718c0 1.886 1.552 3.42 3.46 3.42h9.406a1.22 1.22 0 0 0-.035.283v3.85c0 2.774-2.283 5.032-5.09 5.032H35.664c-.7 0-1.27.563-1.27 1.256S34.962 67 35.664 67h23.898c4.21 0 7.633-3.384 7.633-7.543v-3.85c0-.118-.022-.23-.053-.338 1.62-.283 2.858-1.682 2.858-3.365v-5.718c0-1.664-1.2-3.053-2.806-3.355zm-41.562-8.828c-2.793 0-5.066-2.234-5.09-4.99.08-2.526 2.147-4.502 4.703-4.502h29.688c2.595 0 4.705 2.086 4.705 4.65v4.845c-.027 0-.052-.004-.08-.004h-33.93zm41.827 17.9c0 .5-.412.908-.918.908h-11.26c-.506 0-.92-.407-.92-.908v-5.718c0-.5.412-.907.92-.907h11.26c.506 0 .918.407.918.907v5.718z" fill-rule="nonzero"/><circle cx="58" cy="49" r="2"/></g></g></svg>