<svg xmlns="http://www.w3.org/2000/svg" width="85" height="85"><g fill-rule="evenodd"><circle cx="42.5" cy="42.5" r="42.5" fill="#069CA3" fill-rule="nonzero"/><g fill="#FCFCFC"><path d="M62.4 65.4H32V67h31.2a.8.8 0 0 0 .8-.8V63h-1.6v2.4z"/><path d="M66 57.5a3.5 3.5 0 1 0-3.5 3.5c1.932-.002 3.498-1.568 3.5-3.5zm-3.5 1.75a1.75 1.75 0 1 1 0-3.5 1.75 1.75 0 1 1 0 3.5zM33.5 44a3.5 3.5 0 1 0-3.5-3.5c.002 1.932 1.568 3.498 3.5 3.5zm0-5.25a1.75 1.75 0 1 1 0 3.5 1.75 1.75 0 1 1 0-3.5z" fill-rule="nonzero"/><path d="M63.2 48.5H35.58V44H34v5.4c0 .497.353.9.8.9h27.63V53H64v-3.6c0-.497-.353-.9-.8-.9zM34.75 31.714H40V30h-6.125c-.483 0-.875.384-.875.857V36h1.75v-4.286z"/><path d="M48.987 36.7c.333.52.51 1.127.513 1.746v3.72c0 .46.373.833.833.833h8.333c.46 0 .833-.373.833-.833v-3.72c.002-.62.18-1.224.512-1.746 1.21-1.85 1.896-3.992 1.988-6.2a7.5 7.5 0 1 0-15 0 12.26 12.26 0 0 0 1.987 6.2zm2.18 4.634v-1.667h6.667v1.667h-6.667zM54.5 24.667a5.84 5.84 0 0 1 5.833 5.833c-.096 1.892-.693 3.723-1.73 5.31-.416.662-.67 1.413-.74 2.19h-2.532v-3.333h-1.667V38h-2.532c-.07-.78-.323-1.53-.74-2.192-1.036-1.585-1.633-3.417-1.73-5.308a5.84 5.84 0 0 1 5.833-5.833z" fill-rule="nonzero"/><path d="M53 18h2v3h-2zM42 30h3v2h-3zm22 0h3v2h-3zm-18.532-7.544l1.138-1.138 2.277 2.277-1.138 1.138zm14.8 1.138l2.277-2.277 1.138 1.138-2.277 2.277zM55 33h2v2h-2zm-4 0h2v2h-2zM20 18h2v2h-2zm0 3h2v2h-2z"/><path d="M21 20h2v2h-2zm-3 0h2v2h-2zm5.75 36h1.5v-3.333H26V51h-3v1.667h.75zM26 63h2v2h-2z"/><path d="M18.45 57.81l1.176.6v7.764a.82.82 0 0 0 .813.828h8.125a.82.82 0 0 0 .813-.828v-7.764l1.176-.6a.83.83 0 0 0 .449-.74v-4.965c-.002-1.65-1.195-3.047-2.798-3.278.237-.53.36-1.105.36-1.687 0-2.285-1.82-4.138-4.062-4.138s-4.062 1.853-4.062 4.138c0 .583.123 1.158.36 1.688-1.604.23-2.796 1.628-2.798 3.278v4.965a.83.83 0 0 0 .449.74zm1.176-5.706c.001-.914.728-1.654 1.625-1.655h1.12c.338 0 .64-.214.76-.537s.03-.687-.226-.914c-.535-.465-.843-1.145-.843-1.86 0-1.37 1.09-2.482 2.438-2.482s2.438 1.11 2.438 2.482c0 .716-.308 1.396-.843 1.86-.255.227-.345.59-.226.914s.422.537.76.537h1.12c.897.001 1.624.742 1.625 1.655v4.454l-1.176.6a.83.83 0 0 0-.449.74v7.448h-6.5v-7.448a.83.83 0 0 0-.449-.74l-1.176-.6v-4.454z" fill-rule="nonzero"/></g></g></svg>