<svg xmlns="http://www.w3.org/2000/svg" width="85" height="85"><g fill-rule="nonzero"><circle cx="42.5" cy="42.5" r="42.5" fill="#069CA3"/><path d="M70.017 31.094l-4.454-5.545c-1.308-1.628-3.646-2.042-5.428-.9l-3.702 2.3c-1.197.745-2.7.772-3.953.1l-2.95-1.628c-2.032-1.13-4.51-1.02-6.458.22l-.696.44-.668-.414c-2.3-1.38-5.122-1.517-7.516-.33l-1.03.524c-2.004.966-4.342.9-6.29-.166l-.696-.386c-2.032-1.13-4.65-.717-6.207 1.048l-4.927 5.545a4.02 4.02 0 0 0-1.03 3.035c.084 1.104.612 2.124 1.475 2.842l4.398 3.67-1.976 2.097c-.724.772-1.113 1.793-1.086 2.87a3.92 3.92 0 0 0 1.28 2.786c.557.497 1.197.828 1.893.993a3.91 3.91 0 0 0-.362 1.793 3.92 3.92 0 0 0 1.28 2.786c.78.717 1.754 1.076 2.756 1.076a3.75 3.75 0 0 0 1.447-.276c.167.772.585 1.5 1.17 2.042.78.717 1.754 1.076 2.756 1.076.724 0 1.42-.193 2.06-.552.195.662.557 1.27 1.086 1.738.78.717 1.754 1.076 2.756 1.076 1.086 0 2.17-.414 2.95-1.27l1.726-1.82 2.728 2.262c.724.58 1.587.883 2.422.883 1.03 0 2.06-.414 2.81-1.24.4-.414.668-.9.807-1.435l.835.745a4.16 4.16 0 0 0 5.734-.276c.557-.607.92-1.352 1.03-2.124 1.42.44 3.062.083 4.12-1.104.92-.993 1.197-2.373.89-3.587.807-.138 1.56-.552 2.116-1.186.696-.745 1.03-1.738.974-2.76s-.53-1.93-1.308-2.593l-.306-.276 7.376-8.304c1.475-1.655 1.53-4.056.167-5.766zM19.584 47.462c-.36-.36-.553-.867-.58-1.375a2.05 2.05 0 0 1 .498-1.435l4.343-5.023c.36-.42.858-.628 1.328-.628.443 0 .885.18 1.245.538s.553.867.58 1.375-.166 1.047-.498 1.435l-4.343 5.023a1.77 1.77 0 0 1-1.273.628c-.47 0-.94-.18-1.3-.538zm3.022 5.05c-.373-.33-.575-.8-.603-1.268-.03-.496.172-.965.517-1.323l6.176-6.34c.718-.744 1.925-.772 2.7-.083s.804 1.847.086 2.592l-2.987 3.06-3.217 3.28c-.69.717-1.896.772-2.67.083zm5.028 3.973c-.39-.35-.6-.845-.63-1.34-.03-.524.18-1.02.54-1.398l2.194-2.272 1.804-1.864c.752-.786 2.014-.815 2.826-.087s.842 1.95.1 2.738l-.51.524-3.487 3.61c-.752.757-2.014.815-2.826.087zm8.683 1.923c-.72.76-1.932.788-2.71.084s-.807-1.886-.087-2.646l2.163-2.252c.346-.366.807-.563 1.327-.59s1.01.17 1.384.507c.78.704.807 1.886.087 2.646l-2.163 2.252zm25.312-8.84c-.28.33-.7.495-1.12.523-.448.028-.84-.138-1.176-.413l-7.558-6.936a1.12 1.12 0 0 0-1.568.055c-.42.44-.392 1.128.056 1.54l8.2 7.596c.7.633.728 1.734.112 2.422-.644.716-1.763.77-2.49.1l-1.316-1.184-.028-.028-6.382-5.67c-.448-.413-1.148-.358-1.568.083s-.364 1.128.084 1.54l6.382 5.697a1.9 1.9 0 0 1 .616 1.294c.028.495-.168.99-.504 1.376-.7.743-1.903.826-2.687.138l-3.443-3-3.22-2.917a1.15 1.15 0 0 0-1.568.083c-.392.44-.364 1.128.084 1.54l3.275 2.862c.308.275.504.66.532 1.073s-.112.826-.42 1.128a1.6 1.6 0 0 1-2.211.138l-2.91-2.395a3.99 3.99 0 0 0-1.064-4.239c-.784-.716-1.82-1.1-2.91-1.073h-.14c0-1.073-.42-2.12-1.288-2.9-.588-.55-1.316-.88-2.043-1.018.532-1.46.168-3.138-1.064-4.24a4.14 4.14 0 0 0-3.163-1.046c0-1.073-.504-2.064-1.288-2.78-1.624-1.514-4.2-1.43-5.738.193l-.896.963-4.507-3.716c-.42-.33-.644-.798-.7-1.32-.028-.523.14-1.018.476-1.43l4.982-5.56c.868-.99 2.35-1.21 3.5-.578l.7.385c2.575 1.43 5.7 1.514 8.37.22l1.064-.523c1.68-.798 3.583-.77 5.206.1l-2.127 1.35c-.952.606-1.596 1.57-1.82 2.67s.028 2.202.672 3.138c1.176 1.65 3.47 2.23 5.3 1.32l1.624-.798c1.232-.606 2.715-.44 3.78.44L61.405 47.3a1.52 1.52 0 0 1 .56 1.101c.112.413-.056.826-.336 1.156zm6.8-14.118L61.075 44 49.547 33.89c-1.023-.906-2.322-1.36-3.62-1.36a5.34 5.34 0 0 0-2.516.623l-1.603.82c-.857.453-1.908.17-2.46-.65-.304-.453-.415-.99-.304-1.53s.415-.99.857-1.303l4.755-3.2a3.9 3.9 0 0 1 4.174-.142l2.93 1.67c1.908 1.104 4.285 1.02 6.137-.17l3.677-2.35c.83-.538 1.908-.34 2.516.453l4.423 5.692c.69.878.636 2.124-.083 3.002z" fill="#FCFCFC"/></g></svg>