<svg xmlns="http://www.w3.org/2000/svg" width="87" height="87"><g fill-rule="evenodd"><circle cx="43.5" cy="43.5" r="42.5" fill="#089CA3" fill-rule="nonzero" stroke="#089CA3" stroke-width="2"/><g fill="#FCFCFC"><path d="M47 44c0-5.738-3.742-10.612-8.9-12.33A6.99 6.99 0 0 0 41 26a7.01 7.01 0 0 0-7-7 7.01 7.01 0 0 0-7 7 6.99 6.99 0 0 0 2.91 5.67C24.742 33.388 21 38.262 21 44v1h26v-1zM29 26a5.01 5.01 0 0 1 5-5 5.01 5.01 0 0 1 5 5 5.01 5.01 0 0 1-5 5 5.01 5.01 0 0 1-5-5zm-5.955 17C23.552 37.4 28.27 33 34 33s10.448 4.4 10.955 10h-21.9zM60.1 53.67A6.99 6.99 0 0 0 63 48a7.01 7.01 0 0 0-7-7 7.01 7.01 0 0 0-7 7 6.99 6.99 0 0 0 2.91 5.67C46.742 55.388 43 60.262 43 66v1h26v-1c0-5.738-3.742-10.612-8.9-12.33zM51 48a5.01 5.01 0 0 1 5-5 5.01 5.01 0 0 1 5 5 5.01 5.01 0 0 1-5 5 5.01 5.01 0 0 1-5-5zm-5.955 17C45.552 59.4 50.27 55 56 55s10.448 4.4 10.955 10h-21.9z" fill-rule="nonzero"/><path d="M57.414 36.707v-12h-8.586l3.293-3.293L50.707 20 45 25.707l5.707 5.707L52.12 30l-3.293-3.293h6.586v10zm-25.12 19L35.586 59H29V49h-2v12h8.586l-3.293 3.293 1.414 1.414L39.414 60l-5.707-5.707z"/></g></g></svg>