<?xml version="1.0" encoding="UTF-8"?>
<svg width="60px" height="60px" viewBox="0 0 60 60" version="1.1" xmlns="http://www.w3.org/2000/svg" xmlns:xlink="http://www.w3.org/1999/xlink">
    <!-- Generator: Sketch 52.2 (67145) - http://www.bohemiancoding.com/sketch -->
    <title>noun_experience_1833817@1x</title>
    <desc>Created with Sketch.</desc>
    <g id="Page-1" stroke="none" stroke-width="1" fill="none" fill-rule="evenodd">
        <g id="Custom-Preset" transform="translate(-111.000000, -51.000000)" fill="#000000">
            <g id="noun_experience_1833817" transform="translate(111.000000, 51.000000)">
                <path d="M54,58 L16,58 L16,60 L55,60 C55.5522847,60 56,59.5522847 56,59 L56,55 L54,55 L54,58 Z" id="Path"></path>
                <path d="M59,49 C59,46.790861 57.209139,45 55,45 C52.790861,45 51,46.790861 51,49 C51,51.209139 52.790861,53 55,53 C57.2080927,52.9974761 58.9974761,51.2080927 59,49 Z M55,51 C53.8954305,51 53,50.1045695 53,49 C53,47.8954305 53.8954305,47 55,47 C56.1045695,47 57,47.8954305 57,49 C56.9988975,50.1041125 56.1041125,50.9988975 55,51 Z" id="Shape" fill-rule="nonzero"></path>
                <path d="M19,31 C21.209139,31 23,29.209139 23,27 C23,24.790861 21.209139,23 19,23 C16.790861,23 15,24.790861 15,27 C15.0025239,29.2080927 16.7919073,30.9974761 19,31 Z M19,25 C20.1045695,25 21,25.8954305 21,27 C21,28.1045695 20.1045695,29 19,29 C17.8954305,29 17,28.1045695 17,27 C17.0011025,25.8958875 17.8958875,25.0011025 19,25 Z" id="Shape" fill-rule="nonzero"></path>
                <path d="M55,38 L20,38 L20,33 L18,33 L18,39 C18,39.5522847 18.4477153,40 19,40 L54,40 L54,43 L56,43 L56,39 C56,38.4477153 55.5522847,38 55,38 Z" id="Path"></path>
                <path d="M20,16 L26,16 L26,14 L19,14 C18.4477153,14 18,14.4477153 18,15 L18,21 L20,21 L20,16 Z" id="Path"></path>
                <path d="M38.38477,22.43945 C38.7843763,23.0655691 38.9977468,23.7923914 39,24.53516 L39,29 C39,29.5522847 39.4477153,30 40,30 L50,30 C50.5522847,30 51,29.5522847 51,29 L51,24.53516 C51.002246,23.7926119 51.2154418,23.0659877 51.61475,22.43994 C53.0659288,20.2203023 53.8900827,17.6496471 54,15 C53.9999999,10.0294374 49.9705626,6.00000027 45,6.00000027 C40.0294374,6.00000027 36.0000001,10.0294374 36,15 C36.1098969,17.649427 36.9338773,20.219889 38.38477,22.43945 Z M41,28 L41,26 L49,26 L49,28 L41,28 Z M45,8 C48.8641953,8.00433715 51.9956629,11.1358047 52,15 C51.8845522,17.2696721 51.1684105,19.4679705 49.9248,21.37012 C49.4252067,22.1641721 49.121377,23.06554 49.03833,24 L46,24 L46,20 L44,20 L44,24 L40.96167,24 C40.8785626,23.0653213 40.5745455,22.1637683 40.07467,21.36963 C38.8313652,19.4675515 38.1154144,17.2694468 38,15 C38.0043371,11.1358047 41.1358047,8.00433715 45,8 Z" id="Shape" fill-rule="nonzero"></path>
                <rect id="Rectangle" x="44" y="0" width="2" height="4"></rect>
                <rect id="Rectangle" x="30" y="14" width="4" height="2"></rect>
                <rect id="Rectangle" x="56" y="14" width="4" height="2"></rect>
                <rect id="Rectangle" transform="translate(35.807618, 5.807617) rotate(-45.000000) translate(-35.807618, -5.807617) " x="34.8077235" y="3.80783156" width="1.99979" height="3.99957"></rect>
                <rect id="Rectangle" transform="translate(54.192384, 5.807611) rotate(-45.000000) translate(-54.192384, -5.807611) " x="52.192599" y="4.80771603" width="3.99957" height="1.99979"></rect>
                <rect id="Rectangle" x="46" y="17" width="2" height="2"></rect>
                <rect id="Rectangle" x="42" y="17" width="2" height="2"></rect>
                <rect id="Rectangle" x="2" y="0" width="2" height="2"></rect>
                <rect id="Rectangle" x="2" y="4" width="2" height="2"></rect>
                <rect id="Rectangle" x="4" y="2" width="2" height="2"></rect>
                <rect id="Rectangle" x="0" y="2" width="2" height="2"></rect>
                <polygon id="Path" points="7 47 9 47 9 43 10 43 10 41 6 41 6 43 7 43"></polygon>
                <rect id="Rectangle" x="9" y="55" width="2" height="2"></rect>
                <path d="M0.55273,48.89453 L2,49.61816 L2,59 C2,59.5522847 2.44771525,60 3,60 L13,60 C13.5522847,60 14,59.5522847 14,59 L14,49.61816 L15.44727,48.89453 C15.7860899,48.7251326 16.0000848,48.3788065 16,48 L16,42 C15.9975459,40.0066043 14.5298232,38.318296 12.55615,38.03857 C12.8481343,37.398591 12.9994869,36.7034399 13,36 C13,33.2385763 10.7614237,31 8,31 C5.23857625,31 3,33.2385763 3,36 C3.00051314,36.7034399 3.15186571,37.398591 3.44385,38.03857 C1.47017678,38.318296 0.00245413211,40.0066043 2.30886233e-15,42 L2.30886233e-15,48 C-8.47533706e-05,48.3788065 0.213910123,48.7251326 0.55273,48.89453 Z M2,42 C2.00110246,40.8958875 2.89588748,40.0011025 4,40 L5.37939,40 C5.79597309,40.0000007 6.16890209,39.7417054 6.31537804,39.351723 C6.46185398,38.9617406 6.3511779,38.5218051 6.0376,38.24756 C5.37968829,37.6861654 5.00053521,36.8648765 5,36 C5,34.3431458 6.34314575,33 8,33 C9.65685425,33 11,34.3431458 11,36 C10.9994648,36.8648765 10.6203117,37.6861654 9.9624,38.24756 C9.6488221,38.5218051 9.53814602,38.9617406 9.68462196,39.351723 C9.83109791,39.7417054 10.2040269,40.0000007 10.62061,40 L12,40 C13.1041125,40.0011025 13.9988975,40.8958875 14,42 L14,47.38184 L12.55273,48.10547 C12.2139101,48.2748674 11.9999152,48.6211935 12,49 L12,58 L4,58 L4,49 C4.00008475,48.6211935 3.78608988,48.2748674 3.44727,48.10547 L2,47.38184 L2,42 Z" id="Shape" fill-rule="nonzero"></path>
            </g>
        </g>
    </g>
</svg>