<?xml version="1.0" encoding="UTF-8"?>
<svg width="48px" height="48px" viewBox="0 0 48 48" version="1.1" xmlns="http://www.w3.org/2000/svg" xmlns:xlink="http://www.w3.org/1999/xlink">
    <!-- Generator: Sketch 52.2 (67145) - http://www.bohemiancoding.com/sketch -->
    <title>noun_engagement_1768573@2x</title>
    <desc>Created with Sketch.</desc>
    <g id="Page-1" stroke="none" stroke-width="1" fill="none" fill-rule="evenodd">
        <g id="Custom-Preset" transform="translate(-335.000000, -144.000000)" fill="#000000">
            <g id="noun_engagement_1768573" transform="translate(335.000000, 144.000000)">
                <g id="Group">
                    <path d="M26,25 C26,19.262 22.258,14.388 17.089,12.669 C18.849,11.396 20,9.332 20,7 C20,3.141 16.859,0 13,0 C9.141,0 6,3.141 6,7 C6,9.332 7.151,11.396 8.911,12.669 C3.742,14.388 0,19.262 0,25 L0,26 L26,26 L26,25 Z M8,7 C8,4.243 10.243,2 13,2 C15.757,2 18,4.243 18,7 C18,9.757 15.757,12 13,12 C10.243,12 8,9.757 8,7 Z M2.045,24 C2.552,18.401 7.271,14 13,14 C18.729,14 23.448,18.401 23.955,24 L2.045,24 Z" id="Shape" fill-rule="nonzero"></path>
                    <path d="M39.089,34.669 C40.849,33.396 42,31.332 42,29 C42,25.141 38.859,22 35,22 C31.141,22 28,25.141 28,29 C28,31.332 29.151,33.396 30.911,34.669 C25.742,36.388 22,41.262 22,47 L22,48 L48,48 L48,47 C48,41.262 44.258,36.388 39.089,34.669 Z M30,29 C30,26.243 32.243,24 35,24 C37.757,24 40,26.243 40,29 C40,31.757 37.757,34 35,34 C32.243,34 30,31.757 30,29 Z M24.045,46 C24.552,40.401 29.271,36 35,36 C40.729,36 45.448,40.401 45.955,46 L24.045,46 Z" id="Shape" fill-rule="nonzero"></path>
                    <polygon id="Path" points="36 18 36 6 27.414 6 30.707 2.707 29.293 1.293 23.586 7 29.293 12.707 30.707 11.293 27.414 8 34 8 34 18"></polygon>
                    <polygon id="Path" points="11.293 36.707 14.586 40 8 40 8 30 6 30 6 42 14.586 42 11.293 45.293 12.707 46.707 18.414 41 12.707 35.293"></polygon>
                </g>
            </g>
        </g>
    </g>
</svg>