<?xml version="1.0" encoding="UTF-8"?>
<svg width="60px" height="60px" viewBox="0 0 60 60" version="1.1" xmlns="http://www.w3.org/2000/svg" xmlns:xlink="http://www.w3.org/1999/xlink">
    <!-- Generator: Sketch 52.2 (67145) - http://www.bohemiancoding.com/sketch -->
    <title>noun_improvement_1943686@2x</title>
    <desc>Created with Sketch.</desc>
    <g id="Page-1" stroke="none" stroke-width="1" fill="none" fill-rule="evenodd">
        <g id="Custom-Preset" transform="translate(-42.000000, -198.000000)" fill="#000000">
            <g id="noun_improvement_1943686" transform="translate(42.000000, 198.000000)">
                <path d="M25,60 L35,60 C35.552,60 36,59.553 36,59 L36,49.618 L37.447,48.894 C37.786,48.725 38,48.379 38,48 L38,42 C38,39.983 36.5,38.311 34.556,38.038 C34.846,37.402 35,36.709 35,36 C35,33.243 32.757,31 30,31 C27.243,31 25,33.243 25,36 C25,36.709 25.154,37.402 25.444,38.038 C23.5,38.311 22,39.983 22,42 L22,48 C22,48.379 22.214,48.725 22.553,48.895 L24,49.618 L24,59 C24,59.553 24.448,60 25,60 Z M24,42 C24,40.897 24.897,40 26,40 L27.379,40 C27.796,40 28.169,39.741 28.315,39.352 C28.461,38.963 28.351,38.522 28.037,38.248 C27.369,37.662 27,36.864 27,36 C27,34.346 28.346,33 30,33 C31.654,33 33,34.346 33,36 C33,36.864 32.631,37.662 31.962,38.247 C31.648,38.521 31.538,38.962 31.684,39.351 C31.83,39.74 32.204,40 32.621,40 L34,40 C35.103,40 36,40.897 36,42 L36,47.382 L34.553,48.106 C34.214,48.275 34,48.621 34,49 L34,58 L26,58 L26,49 C26,48.621 25.786,48.275 25.447,48.105 L24,47.382 L24,42 Z" id="Shape" fill-rule="nonzero"></path>
                <polygon id="Path" points="29 47 31 47 31 43.618 32.447 42.895 31.553 41.105 30 41.882 28.447 41.105 27.553 42.895 29 43.618"></polygon>
                <path d="M6,60 L16,60 C16.552,60 17,59.553 17,59 L17,37 L21,37 C21.388,37 21.741,36.775 21.906,36.424 C22.071,36.073 22.017,35.658 21.768,35.36 L11.768,23.36 C11.388,22.905 10.612,22.905 10.232,23.36 L0.232,35.36 C-0.017,35.659 -0.07,36.074 0.094,36.424 C0.259,36.775 0.612,37 1,37 L5,37 L5,59 C5,59.553 5.448,60 6,60 Z M3.135,35 L11,25.562 L18.865,35 L16,35 C15.448,35 15,35.447 15,36 L15,58 L7,58 L7,36 C7,35.447 6.552,35 6,35 L3.135,35 Z" id="Shape" fill-rule="nonzero"></path>
                <path d="M40.906,25.424 C41.071,25.073 41.017,24.658 40.768,24.36 L30.768,12.36 C30.388,11.905 29.612,11.905 29.232,12.36 L19.232,24.36 C18.983,24.659 18.93,25.074 19.094,25.424 C19.259,25.775 19.612,26 20,26 L24,26 L24,31 L26,31 L26,25 C26,24.447 25.552,24 25,24 L22.135,24 L30,14.562 L37.865,24 L35,24 C34.448,24 34,24.447 34,25 L34,31 L36,31 L36,26 L40,26 C40.388,26 40.741,25.775 40.906,25.424 Z" id="Path"></path>
                <path d="M44,60 L54,60 C54.552,60 55,59.553 55,59 L55,14 L59,14 C59.388,14 59.741,13.775 59.906,13.424 C60.071,13.073 60.017,12.658 59.768,12.36 L49.768,0.36 C49.388,-0.095 48.612,-0.095 48.232,0.36 L38.232,12.36 C37.983,12.659 37.93,13.074 38.094,13.424 C38.259,13.775 38.612,14 39,14 L43,14 L43,59 C43,59.553 43.448,60 44,60 Z M41.135,12 L49,2.562 L56.865,12 L54,12 C53.448,12 53,12.447 53,13 L53,58 L45,58 L45,13 C45,12.447 44.552,12 44,12 L41.135,12 Z" id="Shape" fill-rule="nonzero"></path>
                <polygon id="Path" points="3 8 5 8 5 5 8 5 8 3 5 3 5 0 3 0 3 3 0 3 0 5 3 5"></polygon>
                <polygon id="Path" points="15 10 18 10 18 13 20 13 20 10 23 10 23 8 20 8 20 5 18 5 18 8 15 8"></polygon>
                <rect id="Rectangle" x="1" y="20" width="2" height="2"></rect>
                <rect id="Rectangle" x="34" y="1" width="2" height="2"></rect>
                <rect id="Rectangle" x="58" y="57" width="2" height="2"></rect>
            </g>
        </g>
    </g>
</svg>