<?xml version="1.0" encoding="UTF-8"?>
<svg width="60px" height="60px" viewBox="0 0 60 60" version="1.1" xmlns="http://www.w3.org/2000/svg" xmlns:xlink="http://www.w3.org/1999/xlink">
    <!-- Generator: Sketch 52.2 (67145) - http://www.bohemiancoding.com/sketch -->
    <title>noun_plan_1966115@2x</title>
    <desc>Created with Sketch.</desc>
    <g id="Page-1" stroke="none" stroke-width="1" fill="none" fill-rule="evenodd">
        <g id="Custom-Preset" transform="translate(-187.000000, -65.000000)" fill="#000000" fill-rule="nonzero">
            <g id="noun_plan_1966115" transform="translate(187.000000, 65.000000)">
                <g id="Group">
                    <path d="M59,8 L17.941,8 C17.3964929,3.26622601 13.2566909,-0.222779966 8.49908818,0.0424004978 C3.74148547,0.307580962 0.0150640315,4.23503649 8.8817842e-16,9 L8.8817842e-16,51 C0.00551112896,55.9682782 4.03172183,59.9944889 9,60 L59,60 C59.5522847,60 60,59.5522847 60,59 L60,9 C60,8.44771525 59.5522847,8 59,8 Z M2,9 C2.00000006,5.13400679 5.13400679,2.0000001 9,2.0000001 C12.8659932,2.0000001 15.9999999,5.13400679 16,9 L16,45.349 C14.2934076,43.2312384 11.719811,41.9999308 9,41.9999308 C6.28018899,41.9999308 3.70659239,43.2312384 2,45.349 L2,9 Z M58,58 L9,58 C5.13400675,58 2,54.8659932 2,51 C2,47.1340068 5.13400675,44 9,44 C12.8659932,44 16,47.1340068 16,51 C16,51.5522847 16.4477153,52 17,52 C17.5522847,52 18,51.5522847 18,51 L18,10 L58,10 L58,58 Z" id="Shape"></path>
                    <path d="M23,54 L53,54 C53.5522847,54 54,53.5522847 54,53 L54,31 L52,31 L52,36 L33,36 L33,38 L40,38 L40,43 L42,43 L42,38 L52,38 L52,52 L42,52 L42,47 L40,47 L40,52 L24,52 L24,38 L29,38 L29,36 L24,36 L24,22 L45,22 C45.5522847,22 46,21.5522847 46,21 L46,16 L52,16 L52,27 L54,27 L54,15 C54,14.4477153 53.5522847,14 53,14 L23,14 C22.4477153,14 22,14.4477153 22,15 L22,53 C22,53.5522847 22.4477153,54 23,54 Z M36,20 L34,20 L34,16 L36,16 L36,20 Z M38,16 L40,16 L40,20 L38,20 L38,16 Z M32,20 L30,20 L30,16 L32,16 L32,20 Z M44,20 L42,20 L42,16 L44,16 L44,20 Z M24,16 L28,16 L28,20 L24,20 L24,16 Z" id="Shape"></path>
                </g>
            </g>
        </g>
    </g>
</svg>