<?xml version="1.0" encoding="UTF-8"?>
<svg width="59px" height="60px" viewBox="0 0 59 60" version="1.1" xmlns="http://www.w3.org/2000/svg" xmlns:xlink="http://www.w3.org/1999/xlink">
    <!-- Generator: Sketch 52.2 (67145) - http://www.bohemiancoding.com/sketch -->
    <title>noun_asteroid impact_324293@2x</title>
    <desc>Created with Sketch.</desc>
    <g id="Page-1" stroke="none" stroke-width="1" fill="none" fill-rule="evenodd">
        <g id="Custom-Preset" transform="translate(-359.000000, -211.000000)" fill="#000000">
            <g id="noun_asteroid-impact_324293" transform="translate(359.000000, 211.000000)">
                <g id="Group">
                    <path d="M11,53 L9.41,53 L7,50.59 L7,49 C7,48.45 6.55,48 6,48 C5.45,48 5,48.45 5,49 L5,50.59 L2.59,53 L1,53 C0.45,53 0,53.45 0,54 C0,54.55 0.45,55 1,55 L2.59,55 L5,57.41 L5,59 C5,59.55 5.45,60 6,60 C6.55,60 7,59.55 7,59 L7,57.41 L9.41,55 L11,55 C11.55,55 12,54.55 12,54 C12,53.45 11.55,53 11,53 Z M6,55.59 L4.41,54 L6,52.41 L7.59,54 L6,55.59 Z" id="Shape" fill-rule="nonzero"></path>
                    <circle id="Oval" cx="56" cy="42" r="1"></circle>
                    <circle id="Oval" cx="52" cy="23" r="1"></circle>
                    <circle id="Oval" cx="53" cy="27" r="1"></circle>
                    <circle id="Oval" cx="56" cy="23" r="1"></circle>
                    <circle id="Oval" cx="38" cy="4" r="1"></circle>
                    <circle id="Oval" cx="44" cy="2" r="1"></circle>
                    <circle id="Oval" cx="56" cy="16" r="1"></circle>
                    <circle id="Oval" cx="34" cy="6" r="1"></circle>
                    <circle id="Oval" cx="31" cy="11" r="1"></circle>
                    <circle id="Oval" cx="31" cy="18" r="1"></circle>
                    <circle id="Oval" cx="35" cy="23" r="1"></circle>
                    <circle id="Oval" cx="42" cy="27" r="1"></circle>
                    <circle id="Oval" cx="28" cy="3" r="1"></circle>
                    <circle id="Oval" cx="34" cy="2" r="1"></circle>
                    <circle id="Oval" cx="50" cy="56" r="1"></circle>
                    <circle id="Oval" cx="34" cy="57" r="1"></circle>
                    <circle id="Oval" cx="7" cy="7" r="1"></circle>
                    <circle id="Oval" cx="2.12" cy="47" r="1"></circle>
                    <path d="M49.02,6.15 L49.02,6.13 L48.38,5.84 C48.37,5.83 48.36,5.83 48.34,5.83 C48.05,5.7 47.75,5.58 47.44,5.48 C47.44,5.48 47.44,5.48 47.43,5.48 C46.51,5.17 45.53,5 44.5,5 C43.47,5 42.49,5.17 41.56,5.47 C41.56,5.47 41.56,5.47 41.55,5.47 C41.24,5.57 40.94,5.69 40.65,5.82 C40.64,5.83 40.63,5.83 40.61,5.83 L39.97,6.12 L39.97,6.14 C38.67,6.85 37.55,7.86 36.7,9.07 C34.62,8.15 32.42,7.51 30.16,7.21 C29.11,7.07 28.04,7 26.97,7 C23.05,7 19.33,7.97 16.03,9.68 C16,9.7 15.97,9.7 15.94,9.71 C15.9,9.73 15.88,9.77 15.84,9.79 C9.16,13.33 4.27,19.92 3.21,27.83 C3.15,28.29 3.1,28.74 3.07,29.2 L3.04,29.2 L3.01,30.17 C3.01,30.2 3.01,30.23 3.01,30.25 L3.01,30.26 C3.01,30.26 3.01,30.27 3.01,30.27 C2.99,30.91 3,31.54 3.03,32.17 C3.03,32.19 3.03,32.22 3.03,32.24 C3.27,37.05 4.95,41.68 7.94,45.58 C10.92,49.47 14.91,52.29 19.47,53.79 L20.02,53.98 L20.03,53.97 C21.26,54.34 22.54,54.62 23.84,54.8 C24.9,54.94 25.98,55.01 27.04,55.01 C39,55 49.21,46.05 50.79,34.17 C51.31,30.25 50.84,26.27 49.46,22.58 C49.64,22.47 49.83,22.35 50,22.22 C50.04,22.19 50.08,22.16 50.11,22.13 C50.33,21.97 50.54,21.8 50.75,21.62 C50.8,21.58 50.84,21.53 50.89,21.49 C51.08,21.31 51.27,21.13 51.45,20.94 C51.47,20.91 51.5,20.89 51.52,20.87 L51.9,20.45 L51.89,20.43 C53.2,18.8 53.99,16.74 53.99,14.49 C54,10.9 51.98,7.76 49.02,6.15 Z M42.18,7.37 C42.53,7.26 42.88,7.17 43.24,7.11 C43.3,7.1 43.36,7.09 43.43,7.08 C44.14,6.98 44.87,6.98 45.58,7.08 C45.64,7.09 45.71,7.1 45.77,7.11 C46.13,7.17 46.48,7.25 46.83,7.37 C46.83,7.37 46.83,7.37 46.84,7.37 C46.47,8.33 45.55,9 44.5,9 C43.45,9 42.53,8.33 42.18,7.37 C42.18,7.37 42.18,7.37 42.18,7.37 Z M11.35,39.76 C13.16,41.33 15.42,42.34 16.92,43 C17.41,43.22 18,43.48 18.21,43.62 C18.37,43.86 18.6,44.12 18.88,44.43 C19.21,44.79 19.97,45.65 20.01,45.96 C19.99,46.46 20.04,46.77 20.08,47 C20.12,47.24 20.14,47.35 20.04,47.77 C19.94,48.19 19.93,48.55 19.92,48.88 C19.9,49.5 19.89,50.14 19.13,51.53 C19.13,51.53 19.13,51.53 19.13,51.53 C18.93,51.45 18.73,51.38 18.53,51.29 C18.23,51.16 17.92,51.04 17.63,50.9 C17.48,50.83 17.33,50.74 17.18,50.67 C16.4,50.28 15.65,49.85 14.93,49.37 C14.86,49.32 14.78,49.27 14.7,49.22 C14.29,48.94 13.89,48.65 13.5,48.34 C13.46,48.31 13.41,48.27 13.37,48.24 C10,45.56 7.46,41.93 6.11,37.85 C6.11,37.84 6.11,37.84 6.1,37.83 C5.66,36.51 5.37,35.15 5.19,33.76 C5.15,33.44 5.11,33.12 5.08,32.8 C5.06,32.53 5.05,32.25 5.03,31.97 C5.02,31.78 5.03,31.59 5.02,31.4 L6.59,31.55 C8.22,31.71 9.51,32.95 9.88,34.71 C9.92,34.91 9.97,35.11 10.04,35.31 C10.23,35.88 10.15,36.03 9.99,36.3 C9.26,37.6 9.88,38.49 11.35,39.76 Z M48.81,33.91 C47.36,44.8 38,53 27.03,53 C26.06,53 25.07,52.93 24.09,52.8 C23.05,52.66 22.03,52.43 21.04,52.15 C21.86,50.55 21.89,49.64 21.91,48.92 C21.92,48.65 21.92,48.44 21.97,48.23 C22.15,47.48 22.11,47.09 22.04,46.66 C22.01,46.47 21.98,46.32 22,46.04 C22.05,44.98 21.12,43.93 20.37,43.09 C20.18,42.88 19.93,42.59 19.87,42.5 C19.58,41.99 18.96,41.72 17.73,41.17 C16.34,40.55 14.24,39.61 12.65,38.24 C12.06,37.73 11.82,37.45 11.72,37.32 C11.72,37.31 11.73,37.31 11.73,37.3 C11.97,36.88 12.41,36.11 11.94,34.69 C11.9,34.56 11.86,34.44 11.84,34.32 C11.3,31.72 9.27,29.81 6.78,29.57 L5.09,29.4 C5.12,28.97 5.14,28.53 5.2,28.1 C6.12,21.21 10.21,15.4 15.87,12.06 C16.97,14.24 17.2,15.63 17.05,18.49 C17.03,18.84 17.1,19.19 17.24,19.5 C17.44,19.93 17.64,20.4 17.86,20.89 C19.23,24.02 20.94,27.91 23.87,29.04 C24.64,29.34 25.38,29.44 26.03,29.54 C26.74,29.64 27.35,29.73 27.94,30.02 C27.97,30.04 28.02,30.08 28.02,30.06 C28.22,30.36 28.28,30.82 28.34,31.26 C28.43,31.96 28.55,32.83 29.36,33.26 C29.47,33.32 29.54,33.41 29.53,33.45 C28.41,36.19 29.35,39.34 31.91,41.46 C32.35,41.82 32.77,43.01 30.62,46.85 C30.2,47.6 30.29,48.5 30.85,49.16 C31.25,49.64 31.82,49.89 32.41,49.89 C32.64,49.89 32.88,49.85 33.11,49.77 C34.63,49.23 35.92,48.44 37.43,47.15 C38.48,46.25 39.14,45.3 39.72,44.47 C40.34,43.59 40.87,42.82 41.79,42.15 L42.08,41.9 L42.18,41.61 C42.25,41.4 42.35,41.14 42.45,40.87 C43.15,39.04 44.32,35.97 42.18,34.86 C41.58,34.55 41.12,33.77 40.59,32.87 C40.15,32.12 39.65,31.27 38.96,30.54 C38.65,30.22 38.22,30.01 37.72,29.95 C37.18,29.88 36.73,29.66 36.3,29.45 C35.51,29.07 34.44,28.55 33.23,29.46 C33.15,29.52 33,29.62 32.87,29.58 C32.78,29.55 32.65,29.43 32.58,29.17 C32.36,28.42 31.9,27.94 31.11,27.67 C31.25,27.23 31.17,26.78 30.89,26.44 C30.77,26.3 30.47,25.94 29.56,25.88 C29.52,25.8 29.46,25.72 29.39,25.64 L28.79,25.09 L28.11,25.49 C28.1,25.49 28.03,25.47 27.95,25.4 C27.86,25.31 27.8,25.19 27.81,25.08 L27.82,24.95 L26.96,20.8 C26.85,20.26 26.32,19.91 25.78,20.02 C25.24,20.13 24.89,20.66 25,21.2 L25.81,25.12 C25.82,25.94 26.28,26.73 27,27.16 C27.15,27.25 27.3,27.32 27.45,27.37 C27.47,27.41 27.49,27.44 27.51,27.48 L27.74,27.81 C27.24,27.67 26.76,27.6 26.28,27.54 C25.68,27.45 25.11,27.37 24.55,27.15 C22.4,26.33 20.81,22.71 19.66,20.07 C19.44,19.56 19.23,19.08 19.01,18.58 C19.18,15.35 18.87,13.65 17.59,11.12 C20.48,9.76 23.65,9 26.97,9 C27.94,9 28.93,9.07 29.9,9.2 C31.91,9.47 33.87,10.01 35.74,10.82 C35.38,11.68 35.14,12.6 35.04,13.56 C35.02,13.87 35,14.18 35,14.5 C35,18.63 37.66,22.15 41.35,23.45 L41.36,23.48 L41.65,23.56 C41.7,23.58 41.76,23.59 41.81,23.61 L41.91,23.64 C41.93,23.65 41.95,23.65 41.96,23.65 C42.33,23.75 42.7,23.83 43.08,23.89 C43.15,23.9 43.22,23.91 43.29,23.92 C43.69,23.97 44.09,24.01 44.5,24.01 C44.8,24.01 45.1,23.99 45.39,23.96 C45.5,23.95 45.61,23.93 45.72,23.92 C45.9,23.9 46.07,23.87 46.25,23.84 C46.4,23.81 46.54,23.78 46.68,23.75 C46.8,23.72 46.93,23.69 47.05,23.66 C47.23,23.61 47.41,23.56 47.58,23.49 C47.61,23.48 47.64,23.47 47.66,23.46 C48.88,26.78 49.28,30.38 48.81,33.91 Z M28.28,27.98 L28.57,27.93 C28.77,27.9 28.95,27.88 29.11,27.87 C29.13,28.09 29.18,28.3 29.27,28.5 C29.12,28.38 28.96,28.28 28.83,28.21 C28.64,28.12 28.46,28.05 28.28,27.98 Z M33.18,39.92 C31.3,38.37 30.59,36.12 31.38,34.21 C31.78,33.23 31.38,32.13 30.42,31.56 C30.38,31.43 30.35,31.17 30.32,30.99 C30.25,30.48 30.17,29.86 29.87,29.26 C30.03,29.38 30.22,29.47 30.42,29.54 C30.6,29.6 30.65,29.64 30.68,29.72 C30.93,30.58 31.5,31.21 32.26,31.47 C32.98,31.71 33.78,31.56 34.45,31.05 C34.65,30.9 34.68,30.88 35.45,31.24 C35.97,31.49 36.62,31.81 37.53,31.91 C38.06,32.47 38.48,33.18 38.88,33.87 C39.51,34.94 40.16,36.05 41.27,36.62 C41.64,36.81 41.41,38 40.59,40.15 C40.51,40.35 40.44,40.53 40.38,40.7 C39.34,41.52 38.7,42.43 38.09,43.32 C37.52,44.13 36.99,44.9 36.13,45.63 C34.8,46.77 33.74,47.42 32.37,47.82 C33.77,45.3 35.39,41.74 33.18,39.92 Z M43.02,21.85 C43.01,21.73 43,21.61 43,21.5 C43,19.57 44.57,18 46.5,18 C47.85,18 49.04,18.77 49.62,19.96 C49.61,19.97 49.6,19.98 49.59,19.99 C49.39,20.17 49.19,20.35 48.97,20.51 C48.95,20.53 48.92,20.55 48.9,20.56 C48.67,20.72 48.44,20.88 48.2,21.02 C48.2,21.02 48.19,21.02 48.19,21.03 C48.01,21.13 47.82,21.22 47.63,21.31 C47.47,21.38 47.32,21.45 47.16,21.51 C47.05,21.55 46.93,21.6 46.81,21.63 C46.66,21.68 46.51,21.72 46.36,21.76 C46.22,21.8 46.08,21.83 45.95,21.85 C45.81,21.88 45.67,21.9 45.54,21.92 C45.39,21.94 45.23,21.96 45.08,21.97 C44.95,21.98 44.82,21.99 44.69,21.99 C44.5,21.99 44.3,21.99 44.11,21.98 C44.03,21.98 43.96,21.97 43.88,21.97 C43.59,21.94 43.3,21.91 43.02,21.85 Z M50.96,18.3 C49.95,16.88 48.32,16 46.5,16 C43.59,16 41.21,18.27 41.02,21.14 C38.63,19.88 37,17.38 37,14.5 C37,14.2 37.02,13.91 37.06,13.61 C37.07,13.54 37.08,13.47 37.09,13.4 C37.12,13.17 37.17,12.94 37.23,12.71 C37.25,12.64 37.26,12.58 37.28,12.51 C37.35,12.25 37.44,11.99 37.54,11.74 C37.55,11.72 37.55,11.7 37.56,11.68 C37.68,11.39 37.81,11.11 37.96,10.84 C38.55,9.79 39.38,8.9 40.39,8.23 C41.07,9.86 42.66,11 44.5,11 C46.34,11 47.93,9.86 48.62,8.24 C50.65,9.58 52,11.88 52,14.5 C52,15.89 51.61,17.18 50.96,18.3 Z" id="Shape" fill-rule="nonzero"></path>
                    <path d="M33,15 C33.55,15 34,14.55 34,14 C34,13.45 33.55,13 33,13 L30.3,13 L27.55,11.17 C27.09,10.86 26.47,10.99 26.16,11.45 C25.85,11.91 25.98,12.53 26.44,12.84 L28.61,14.29 L27.16,16.46 C26.85,16.92 26.98,17.54 27.44,17.85 C27.62,17.95 27.81,18 28,18 C28.32,18 28.64,17.84 28.83,17.55 L30.53,15 L33,15 Z" id="Path"></path>
                    <path d="M39.45,23.11 C38.95,22.86 38.35,23.06 38.11,23.56 L37.38,25 L35,25 C34.45,25 34,25.45 34,26 C34,26.55 34.45,27 35,27 L37.28,27 L38.05,29.32 C38.19,29.74 38.58,30 39,30 C39.1,30 39.21,29.98 39.32,29.95 C39.84,29.78 40.13,29.21 39.95,28.69 L39.08,26.08 L39.89,24.45 C40.14,23.95 39.94,23.35 39.45,23.11 Z" id="Path"></path>
                    <path d="M46,25 C45.45,25 45,25.45 45,26 L45,30 C45,30.55 45.45,31 46,31 C46.55,31 47,30.55 47,30 L47,26 C47,25.45 46.55,25 46,25 Z" id="Path"></path>
                    <path d="M34.64,18.57 C34.33,18.11 33.71,17.99 33.25,18.29 L30.44,20.16 C29.98,20.47 29.86,21.09 30.16,21.55 C30.36,21.84 30.68,22 31,22 C31.19,22 31.38,21.95 31.55,21.83 L34.36,19.96 C34.83,19.65 34.95,19.03 34.64,18.57 Z" id="Path"></path>
                    <path d="M48,4 C48.26,4 48.51,3.9 48.71,3.71 L50.71,1.71 C51.1,1.32 51.1,0.69 50.71,0.3 C50.32,-0.09 49.69,-0.09 49.3,0.3 L47.3,2.3 C46.91,2.69 46.91,3.32 47.3,3.71 C47.49,3.9 47.74,4 48,4 Z" id="Path"></path>
                    <path d="M53,7 C53.26,7 53.51,6.9 53.71,6.71 L58.71,1.71 C59.1,1.32 59.1,0.69 58.71,0.3 C58.32,-0.09 57.69,-0.09 57.3,0.3 L52.3,5.3 C51.91,5.69 51.91,6.32 52.3,6.71 C52.49,6.9 52.74,7 53,7 Z" id="Path"></path>
                    <path d="M57.29,8.29 L55.29,10.29 C54.9,10.68 54.9,11.31 55.29,11.7 C55.49,11.9 55.74,12 56,12 C56.26,12 56.51,11.9 56.71,11.71 L58.71,9.71 C59.1,9.32 59.1,8.69 58.71,8.3 C58.32,7.91 57.68,7.9 57.29,8.29 Z" id="Path"></path>
                </g>
            </g>
        </g>
    </g>
</svg>