<?xml version="1.0" encoding="UTF-8"?>
<svg width="46px" height="64px" viewBox="0 0 46 64" version="1.1" xmlns="http://www.w3.org/2000/svg" xmlns:xlink="http://www.w3.org/1999/xlink">
    <!-- Generator: Sketch 52.2 (67145) - http://www.bohemiancoding.com/sketch -->
    <title>noun_creativity_1272786@1x</title>
    <desc>Created with Sketch.</desc>
    <g id="Page-1" stroke="none" stroke-width="1" fill="none" fill-rule="evenodd">
        <g id="Custom-Preset" transform="translate(-118.000000, -212.000000)" stroke="#000000" stroke-width="2">
            <g id="noun_creativity_1272786" transform="translate(119.000000, 213.000000)">
                <g id="Group">
                    <path d="M44,63 L44,44 L44,32 L44,22 C44,9.85 34.15,0 22,0 C9.85,0 0,9.85 0,22 L0,35 L5,35 L5,48 L21,48 L21,62 L13,62" id="Path"></path>
                    <path d="M19,48 L25,48" id="Path"></path>
                    <path d="M19,39 C19,41.761 16.761,44 14,44 C11.239,44 9,41.761 9,39 L19,39 Z" id="Path"></path>
                    <path d="M25,28 L19,28 C17.895,28 17,27.105 17,26 C17,24.895 17.895,24 19,24 L25,24 C26.105,24 27,24.895 27,26 C27,27.105 26.105,28 25,28 Z" id="Path"></path>
                    <path d="M25,32 L19,32 C17.895,32 17,31.105 17,30 C17,28.895 17.895,28 19,28 L25,28 C26.105,28 27,28.895 27,30 C27,31.105 26.105,32 25,32 Z" id="Path"></path>
                    <path d="M30,12 C30,7.582 26.418,4 22,4 C17.582,4 14,7.582 14,12 C14,15.357 16.069,18.226 19,19.413 L19,24 L25,24 L25,19.413 C27.931,18.226 30,15.357 30,12 Z" id="Path"></path>
                    <path d="M19,12 L25,12" id="Path"></path>
                    <path d="M22,9 L22,15" id="Path"></path>
                    <path d="M22,32 L22,34 C22,35.105 22.895,36 24,36 L29,36 C30.105,36 31,35.105 31,34 L31,28 C31,26.895 31.895,26 33,26 C34.105,26 35,26.895 35,28 L35,36 L38,39" id="Path"></path>
                    <path d="M4,21 L6,21" id="Path"></path>
                    <path d="M8,21 L10,21" id="Path"></path>
                    <path d="M12,21 L14,21" id="Path"></path>
                </g>
            </g>
        </g>
    </g>
</svg>