<?xml version="1.0" encoding="UTF-8"?>
<svg width="60px" height="60px" viewBox="0 0 60 60" version="1.1" xmlns="http://www.w3.org/2000/svg" xmlns:xlink="http://www.w3.org/1999/xlink">
    <!-- Generator: Sketch 52.2 (67145) - http://www.bohemiancoding.com/sketch -->
    <title>noun_manager_1871561@1x</title>
    <desc>Created with Sketch.</desc>
    <g id="Page-1" stroke="none" stroke-width="1" fill="none" fill-rule="evenodd">
        <g id="Custom-Preset" transform="translate(-271.000000, -211.000000)" fill="#000000">
            <g id="noun_manager_1871561" transform="translate(271.000000, 211.000000)">
                <path d="M3,49 C3.352,49 3.686,48.928 4,48.816 L4,56.5 C4,58.43 5.57,60 7.5,60 C8.48,60 9.364,59.593 10,58.942 C10.636,59.593 11.52,60 12.5,60 C14.43,60 16,58.43 16,56.5 L16,48.816 C16.314,48.928 16.648,49 17,49 C18.654,49 20,47.654 20,46 L20,41 C20,37.691 17.309,35 14,35 L13.974,35 C14.609,34.162 15,33.13 15,32 C15,31.973 14.993,31.949 14.992,31.922 C15.622,31.274 16,30.412 16,29.5 L16,21.816 C16.314,21.928 16.648,22 17,22 C18.654,22 20,20.654 20,19 L20,14 C20,10.691 17.309,8 14,8 L13.974,8 C14.609,7.162 15,6.13 15,5 C15,2.243 12.757,0 10,0 C7.243,0 5,2.243 5,5 C5,6.13 5.391,7.162 6.026,8 L6,8 C2.691,8 0,10.691 0,14 L0,19 C0,20.654 1.346,22 3,22 C3.352,22 3.686,21.928 4,21.816 L4,29.5 C4,30.412 4.378,31.274 5.008,31.922 C5.007,31.949 5,31.973 5,32 C5,33.13 5.391,34.162 6.026,35 L6,35 C2.691,35 0,37.691 0,41 L0,46 C0,47.654 1.346,49 3,49 Z M7,5 C7,3.346 8.346,2 10,2 C11.654,2 13,3.346 13,5 C13,6.654 11.654,8 10,8 C8.346,8 7,6.654 7,5 Z M6,29.023 L6,19 L6,18 L6,13 L4,13 L4,18 L4,19 C4,19.551 3.551,20 3,20 C2.449,20 2,19.551 2,19 L2,14 C2,11.794 3.794,10 6,10 L14,10 C16.206,10 18,11.794 18,14 L18,19 C18,19.551 17.551,20 17,20 C16.449,20 16,19.551 16,19 L16,13 L14,13 L14,19 L14,29.023 C13.973,28.986 13.938,28.957 13.909,28.921 C13.757,28.729 13.6,28.542 13.422,28.374 C13.363,28.318 13.296,28.272 13.235,28.219 C13.066,28.074 12.897,27.931 12.71,27.809 C12.615,27.747 12.511,27.702 12.412,27.647 C12.242,27.553 12.077,27.452 11.896,27.378 C11.705,27.299 11.502,27.248 11.3,27.193 C11.198,27.165 11.104,27.122 10.999,27.101 L10.999,20 L8.999,20 L8.999,27.101 C8.895,27.122 8.8,27.166 8.698,27.193 C8.496,27.248 8.293,27.299 8.102,27.378 C7.921,27.453 7.756,27.553 7.586,27.647 C7.487,27.702 7.383,27.747 7.288,27.809 C7.101,27.931 6.932,28.074 6.763,28.219 C6.701,28.272 6.634,28.318 6.576,28.374 C6.398,28.542 6.241,28.728 6.089,28.921 C6.062,28.957 6.027,28.986 6,29.023 Z M7,32 C7,31.889 7.021,31.784 7.033,31.677 C7.035,31.666 7.04,31.657 7.041,31.646 C7.108,31.084 7.327,30.574 7.653,30.154 C7.659,30.147 7.665,30.14 7.671,30.132 C7.772,30.004 7.884,29.886 8.004,29.777 C8.028,29.755 8.055,29.735 8.08,29.714 C8.188,29.622 8.3,29.536 8.42,29.46 C8.47,29.429 8.524,29.404 8.576,29.375 C8.681,29.317 8.786,29.26 8.897,29.215 C8.984,29.181 9.076,29.158 9.166,29.131 C9.253,29.105 9.337,29.074 9.426,29.056 C9.612,29.022 9.803,29 10,29 C10.197,29 10.388,29.022 10.574,29.058 C10.664,29.076 10.748,29.107 10.835,29.133 C10.925,29.159 11.017,29.182 11.104,29.216 C11.216,29.261 11.321,29.318 11.425,29.376 C11.477,29.404 11.53,29.429 11.58,29.46 C11.7,29.536 11.812,29.622 11.92,29.714 C11.945,29.735 11.972,29.755 11.996,29.777 C12.116,29.886 12.227,30.004 12.329,30.132 C12.335,30.139 12.341,30.146 12.347,30.154 C12.673,30.573 12.892,31.084 12.959,31.646 C12.96,31.657 12.965,31.666 12.967,31.677 C12.979,31.784 13,31.889 13,32 C13,33.654 11.654,35 10,35 C8.346,35 7,33.654 7,32 Z M2,41 C2,38.794 3.794,37 6,37 L14,37 C16.206,37 18,38.794 18,41 L18,46 C18,46.551 17.551,47 17,47 C16.449,47 16,46.551 16,46 L16,45 L16,40 L14,40 L14,45 L14,46 L14,56.5 C14,57.327 13.327,58 12.5,58 C11.673,58 11,57.327 11,56.5 L11,47 L9,47 L9,56.5 C9,57.327 8.327,58 7.5,58 C6.673,58 6,57.327 6,56.5 L6,46 L6,45 L6,40 L4,40 L4,45 L4,46 C4,46.551 3.551,47 3,47 C2.449,47 2,46.551 2,46 L2,41 Z" id="Shape" fill-rule="nonzero"></path>
                <path d="M28,24 C26.346,24 25,25.346 25,27 C25,28.654 26.346,30 28,30 L32,30 L32,31 C32,32.654 33.346,34 35,34 L35,35 C35,36.654 36.346,38 38,38 L38,39 C38,40.654 39.346,42 41,42 L44,42 L49,42 C49.155,42 49.309,41.964 49.447,41.895 L53.236,40 L59,40 C59.552,40 60,39.552 60,39 L60,28 C60,27.448 59.552,27 59,27 L53.277,27 L48.515,24.143 C48.359,24.049 48.181,24 48,24 L41,24 L28,24 Z M45,32 L43.209,32 L44.536,30 L45,30 C45.551,30 46,30.449 46,31 C46,31.551 45.551,32 45,32 Z M28,28 C27.449,28 27,27.551 27,27 C27,26.449 27.449,26 28,26 L39.277,26 L38.134,28 L34,28 L28,28 Z M34,31 L34,30 L37.043,30 C37.035,30.023 37.031,30.047 37.024,30.07 C37.012,30.106 37.005,30.142 36.994,30.178 C36.947,30.336 36.912,30.496 36.89,30.659 C36.884,30.705 36.879,30.75 36.874,30.796 C36.86,30.954 36.858,31.113 36.868,31.272 C36.871,31.317 36.87,31.361 36.874,31.406 C36.894,31.592 36.926,31.777 36.979,31.961 C36.981,31.969 36.983,31.976 36.986,31.984 C36.988,31.989 36.988,31.995 36.989,32 L35,32 C34.449,32 34,31.551 34,31 Z M37,35 L37,34 L38.812,34 C39.615,34.335 40.482,34.315 41.24,34 L45,34 C45.551,34 46,34.449 46,35 C46,35.551 45.551,36 45,36 L44,36 L40,36 L38,36 C37.449,36 37,35.551 37,35 Z M41,40 C40.449,40 40,39.551 40,39 L40,38 L44,38 C44.551,38 45,38.449 45,39 C45,39.551 44.551,40 44,40 L41,40 Z M52.485,28.857 C52.641,28.951 52.819,29 53,29 L58,29 L58,38 L53,38 C52.845,38 52.691,38.036 52.553,38.105 L48.764,40 L46.816,40 C46.928,39.686 47,39.352 47,39 C47,38.463 46.847,37.966 46.599,37.529 C47.438,36.997 48,36.065 48,35 C48,34.229 47.699,33.532 47.22,33 C47.7,32.468 48,31.771 48,31 C48,29.346 46.654,28 45,28 L44,28 C43.665,28 43.352,28.168 43.167,28.447 L41.139,31.503 C41.116,31.537 41.096,31.572 41.077,31.608 C41.012,31.739 40.92,31.85 40.816,31.946 C40.79,31.97 40.766,31.98 40.74,32 L39.338,32 C39.262,31.943 39.178,31.893 39.118,31.82 C39.11,31.81 39.108,31.796 39.1,31.786 C39.014,31.673 38.944,31.548 38.902,31.407 C38.885,31.347 38.893,31.287 38.885,31.226 C38.873,31.132 38.85,31.037 38.861,30.944 C38.879,30.79 38.927,30.639 39.007,30.5 L41.581,26 L47.724,26 L52.485,28.857 Z" id="Shape" fill-rule="nonzero"></path>
                <rect id="Rectangle" x="20" y="26" width="3" height="2"></rect>
                <rect id="Rectangle" transform="translate(22.999700, 20.000000) rotate(-45.000000) translate(-22.999700, -20.000000) " x="21.9997096" y="18.5860136" width="1.99998082" height="2.82797288"></rect>
                <rect id="Rectangle" transform="translate(22.999600, 33.999900) rotate(-45.000000) translate(-22.999600, -33.999900) " x="21.5856136" y="32.9999096" width="2.82797288" height="1.99998082"></rect>
                <path d="M41,22 L43,22 L43,4 C43,3.448 42.552,3 42,3 L22,3 L22,5 L41,5 L41,22 Z" id="Path"></path>
                <path d="M43,56 L43,44 L41,44 L41,55 L22,55 L22,57 L42,57 C42.552,57 43,56.552 43,56 Z" id="Path"></path>
            </g>
        </g>
    </g>
</svg>