<?xml version="1.0" encoding="UTF-8"?>
<svg width="58px" height="51px" viewBox="0 0 58 51" version="1.1" xmlns="http://www.w3.org/2000/svg" xmlns:xlink="http://www.w3.org/1999/xlink">
    <!-- Generator: Sketch 52.2 (67145) - http://www.bohemiancoding.com/sketch -->
    <title>noun_Save Money_997962@2x</title>
    <desc>Created with Sketch.</desc>
    <g id="Page-1" stroke="none" stroke-width="1" fill="none" fill-rule="evenodd">
        <g id="Custom-Preset" transform="translate(-32.000000, -106.000000)" fill="#000000">
            <g id="noun_Save-Money_997962" transform="translate(32.000000, 106.000000)">
                <path d="M12.6050934,40.4042399 L12.0866266,40.4042399 L12.0866266,38.1561478 C12.0866266,35.3127801 9.86622099,33 7.13711778,33 L6.86357944,33 C4.13447623,33 1.9140706,35.3127801 1.9140706,38.1561478 L1.9140706,40.4042399 L1.39560379,40.4042399 C0.625230498,40.4042399 0,41.0554815 0,41.8579043 L0,49.5463356 C0,50.3487583 0.625230498,51 1.39560379,51 L12.6043956,51 C13.3747689,51 13.9999994,50.3487583 13.9999994,49.5463356 L13.9999994,41.8579043 C14.0006972,41.0547547 13.3754667,40.4042399 12.6050934,40.4042399 Z M4.70527818,38.1561478 C4.70527818,36.916172 5.67382721,35.9073289 6.86357944,35.9073289 L7.13711778,35.9073289 C8.32756781,35.9073289 9.29541904,36.916172 9.29541904,38.1561478 L9.29541904,40.4042399 L4.70527818,40.4042399 L4.70527818,38.1561478 Z M11.2094896,48.0926711 L2.79120758,48.0926711 L2.79120758,43.3115687 L11.2087918,43.3115687 L11.2087918,48.0926711 L11.2094896,48.0926711 Z" id="Shape" fill-rule="nonzero"></path>
                <path d="M40.5846005,6 L8.41539955,6 C7.634099,6 7,6.672 7,7.5 C7,8.328 7.634099,9 8.41539955,9 L40.5846005,9 C41.365901,9 42,8.328 42,7.5 C42,6.672 41.3666087,6 40.5846005,6 Z" id="Path"></path>
                <path d="M54.8697873,23.6083698 L54.8697873,22.152996 C54.8697873,18.4715051 52.536124,15.3351567 49.2790587,14.1338506 L49.2790587,8.11735648 C49.2790587,3.64163713 45.6527742,0 41.1959239,0 L8.08313478,0 C3.69148247,0 0.143152133,3.45090843 0.00425204355,7.85617203 C0.00425204355,7.8568837 0.00425204355,7.85759538 0.00425204355,7.85830705 C0.00354336962,7.87325221 0,7.88677402 0,7.90100751 L0,31.728573 C0,32.5142614 0.634971836,33.1519215 1.41734785,33.1519215 C2.19972386,33.1519215 2.8346957,32.5142614 2.8346957,31.728573 L2.8346957,14.2527002 C4.34275381,15.614133 6.32987549,16.4503503 8.51329985,16.4503503 L46.3571961,16.4503503 C46.6675953,16.4503503 46.970199,16.4823756 47.2671334,16.5307694 C47.4485539,16.6154587 47.6491087,16.6659876 47.8624195,16.6659876 C47.8680889,16.6659876 47.8730496,16.6645642 47.878719,16.6645642 C50.2719109,17.3349613 52.0350916,19.5383048 52.0350916,22.152996 L52.0350916,23.5364907 L41.5835685,23.5364907 C39.4554207,23.5364907 37.7241303,25.2751109 37.7241303,27.411557 L37.7241303,33.8920627 C37.7241303,36.0292205 39.4554207,37.7678407 41.5835685,37.7678407 L52.0747773,37.7678407 C52.0506824,37.8710335 52.0358003,37.9777846 52.0358003,38.0888058 L52.0358003,42.4506573 C52.0358003,45.5948341 49.4888262,48.153303 46.3571961,48.153303 L19.7018438,48.153303 C18.9194678,48.153303 18.2844959,48.7909631 18.2844959,49.5766515 C18.2844959,50.3623399 18.9194678,51 19.7018438,51 L46.3571961,51 C51.0514522,51 54.8704959,47.1647875 54.8704959,42.4506573 L54.8704959,38.0888058 C54.8704959,37.955011 54.846401,37.828333 54.811676,37.7052134 C56.6202119,37.38496 58,35.7993497 58,33.8920627 L58,27.411557 C58,25.5256203 56.6499762,23.9513968 54.8697873,23.6083698 Z M8.51259118,13.6036533 C5.39726061,13.6036533 2.86233398,11.0715163 2.83682172,7.94940136 C2.83682172,7.94868968 2.83682172,7.94797801 2.83682172,7.94655466 C2.92682331,5.08633585 5.23143091,2.84669699 8.08242611,2.84669699 L41.1959239,2.84669699 C44.0901482,2.84669699 46.444363,5.21087885 46.444363,8.11735648 L46.444363,13.608635 C46.4145987,13.608635 46.3862517,13.6043649 46.3564874,13.6043649 L8.51259118,13.6043649 L8.51259118,13.6036533 Z M55.1653043,33.8920627 C55.1653043,34.4592671 54.7060836,34.9211437 54.1412705,34.9211437 L41.5835685,34.9211437 C41.0187554,34.9211437 40.558826,34.4599788 40.558826,33.8920627 L40.558826,27.411557 C40.558826,26.8443527 41.0180467,26.3831877 41.5835685,26.3831877 L54.1412705,26.3831877 C54.7060836,26.3831877 55.1653043,26.8443527 55.1653043,27.411557 L55.1653043,33.8920627 Z" id="Shape" fill-rule="nonzero"></path>
                <circle id="Oval" cx="45" cy="30" r="2"></circle>
            </g>
        </g>
    </g>
</svg>